<svg xmlns="http://www.w3.org/2000/svg" viewBox="0 0 500 500"><g id="freepik--Floor--inject-52"><path id="freepik--floor--inject-52" d="M98,277.2c-84,48.48-84,127.07,0,175.55s220.1,48.48,304.07,0,84-127.07,0-175.55S181.93,228.72,98,277.2Z" style="fill:#f5f5f5"></path></g><g id="freepik--Shadows--inject-52"><path id="freepik--Shadow--inject-52" d="M170.81,437.29c43,23.86,112.79,23.86,155.83,0s43-62.58,0-86.46-112.79-23.88-155.83,0S127.78,413.41,170.81,437.29Z" style="fill:#e0e0e0"></path><path id="freepik--shadow--inject-52" d="M393.72,418.4c-13.17-7.6-34.51-7.6-47.67,0-5.11,3-8.21,6.61-9.35,10.43-13.24-6.31-32.87-5.89-45.26,1.26-13.16,7.6-13.16,19.92,0,27.52s34.5,7.6,47.66,0c5.11-2.95,8.21-6.61,9.36-10.43,13.24,6.31,32.87,5.89,45.25-1.26C406.88,438.32,406.88,426,393.72,418.4Z" style="fill:#e0e0e0"></path></g><g id="freepik--Napkin--inject-52"><g id="freepik--napkin--inject-52"><polygon points="293.03 426.23 107.17 444.59 88.37 308.06 293.03 426.23" style="fill:#e0e0e0"></polygon><polygon points="293.03 426.23 105.85 435.04 88.37 308.06 293.03 426.23" style="opacity:0.1"></polygon><polygon points="293.03 426.23 82.24 429.76 88.37 308.06 293.03 426.23" style="fill:#fafafa"></polygon><path d="M89.54,310.22,288.38,425,83.59,428.46l6-118.24m-1.17-2.15L82.24,429.76,293,426.22,88.37,308.07Z" style="fill:#ebebeb"></path><polygon points="82.9 416.78 83.45 405.82 253.19 403.23 271.66 413.89 82.9 416.78" style="fill:#BA68C8"></polygon><path d="M166.66,353.27c-38.83,24-37.45,60.94,4.15,84,.53.29,1.08.57,1.61.85L293,426.22Z" style="opacity:0.1"></path></g></g><g id="freepik--Drink--inject-52"><g id="freepik--Cocktail--inject-52"><g id="freepik--cocktail--inject-52"><path d="M161.19,183.08l7.79,170v.06a26.53,26.53,0,0,0,2.38,9.89c3.39,7.58,10.36,14.75,21,20.69,31.14,17.42,81.65,17.42,112.8,0,10.6-5.94,17.57-13.11,21-20.69a27,27,0,0,0,2.29-8.63v-.1a15.78,15.78,0,0,0,.08-2.57v-.13l7.7-168.39a35.56,35.56,0,0,0,6.58-18.72l-9.37,217.86-.09,2.78c-.94,11.74-9.17,23.33-24.69,32.3-33.06,19.09-86.66,19.09-119.71,0-16.13-9.31-24.4-21.46-24.78-33.67v-.89l-9.38-218.38A35.3,35.3,0,0,0,161.19,183.08Z" style="fill:#BA68C8"></path><path d="M161.19,183.08l7.79,170v.06a26.53,26.53,0,0,0,2.38,9.89c3.39,7.58,10.36,14.75,21,20.69,31.14,17.42,81.65,17.42,112.8,0,10.6-5.94,17.57-13.11,21-20.69a27,27,0,0,0,2.29-8.63v-.1a15.78,15.78,0,0,0,.08-2.57v-.13l7.7-168.39a35.56,35.56,0,0,0,6.58-18.72l-9.37,217.86-.09,2.78c-.94,11.74-9.17,23.33-24.69,32.3-33.06,19.09-86.66,19.09-119.71,0-16.13-9.31-24.4-21.46-24.78-33.67v-.89l-9.38-218.38A35.3,35.3,0,0,0,161.19,183.08Z" style="fill:#fff;opacity:0.8300000000000001"></path><path d="M169.39,365.11l.53,15.65,0,1.12c1.06,23.25,36,41.91,78.81,41.91s77.52-18.55,78.8-41.7l.05-1.37L328.1,365c-4.22,21.87-38.16,38.92-79.37,38.92S173.76,386.9,169.39,365.11Z" style="fill:#BA68C8;opacity:0.15"></path><path d="M182.23,201.6c36.72,21.2,96.28,21.2,133,0,9.37-5.41,16.34-11.68,20.93-18.37l-7.7,168.39v.13l-.08,2.57v.1a27,27,0,0,1-2.29,8.63c-3.39,7.58-10.36,14.75-21,20.69-31.15,17.42-81.66,17.42-112.8,0-10.61-5.94-17.58-13.11-21-20.69a26.53,26.53,0,0,1-2.38-9.89v-.06l-7.79-170C165.78,189.82,172.78,196.14,182.23,201.6Z" style="fill:#BA68C8"></path><path d="M182.23,201.6c36.72,21.2,96.28,21.2,133,0,9.37-5.41,16.34-11.68,20.93-18.37l-7.7,168.39v.13l-.08,2.57v.1a27,27,0,0,1-2.29,8.63c-3.39,7.58-10.36,14.75-21,20.69-31.15,17.42-81.66,17.42-112.8,0-10.61-5.94-17.58-13.11-21-20.69a26.53,26.53,0,0,1-2.38-9.89v-.06l-7.79-170C165.78,189.82,172.78,196.14,182.23,201.6Z" style="fill:#fff;opacity:0.7000000000000001"></path><path d="M334.88,193l-6.42,158.65v.13l-.08,2.57v.1a27,27,0,0,1-2.29,8.63c-3.39,7.58-10.37,14.75-21,20.69-31.15,17.43-81.66,17.43-112.8,0-10.61-5.94-17.59-13.11-21-20.69a26.73,26.73,0,0,1-2.38-9.89v-.06L162.44,193Z" style="fill:#BA68C8"></path><path d="M309.63,226.79c-33.66,18.67-88.24,18.68-121.9,0s-33.67-49,0-67.63,88.24-18.68,121.91,0S343.3,208.11,309.63,226.79Z" style="fill:#BA68C8"></path><path d="M309.63,226.79c-33.66,18.67-88.24,18.68-121.9,0s-33.67-49,0-67.63,88.24-18.68,121.91,0S343.3,208.11,309.63,226.79Z" style="fill:#fff;opacity:0.30000000000000004"></path><path d="M304.46,382.71c-30.78,16.86-80.68,16.86-111.47,0s-30.78-44.19,0-61,80.69-16.86,111.47,0S335.25,365.85,304.46,382.71Z" style="opacity:0.1"></path><path d="M186.44,197.77c34.41,19.07,90.17,19.07,124.59,0s34.39-50,0-69.13-90.18-19.09-124.59,0S152,178.68,186.44,197.77Z" style="fill:#BA68C8"></path><path d="M186.44,197.77c34.41,19.07,90.17,19.07,124.59,0s34.39-50,0-69.13-90.18-19.09-124.59,0S152,178.68,186.44,197.77Z" style="fill:#fff;opacity:0.7000000000000001"></path><path d="M311,128.64c-1.14-.63-2.3-1.23-3.48-1.82,21.62,14.91,23,52.51-9.15,49.33-15.52-1.53-7.91,11.69,4.1,25.76,2.95-1.27,5.81-2.64,8.53-4.14C345.42,178.68,345.42,147.73,311,128.64Z" style="fill:#BA68C8;opacity:0.25"></path><path d="M237.5,114.73c-18.67,1.33-36.72,6-51.06,13.91-34.17,19-34.39,49.61-.7,68.73.9.51,10.73-7.64,11.69-8.33,3.45-2.45,6.83-5.1,10.38-7.39,2-1.29,7.21-3.39,3.07-6.32-1.61-1.13,4.3-3.24,2.46-3.94-3.12-1.19-11.51.65-19.13-4.36-6.82-4.48-9.25-14.36-6-21.62C195.59,129.06,216.1,118.43,237.5,114.73Z" style="fill:#BA68C8;opacity:0.25"></path><path d="M165.84,179.76c4.25,6.57,11.11,12.74,20.6,18,34.41,19.07,90.17,19.07,124.59,0,9.44-5.25,16.28-11.39,20.54-17.93-3.89-7.57-11.19-14.72-21.93-20.68-33.67-18.68-88.25-18.68-121.91,0C177,165.1,169.73,172.21,165.84,179.76Z" style="fill:#BA68C8"></path><path d="M165.84,179.76c4.25,6.57,11.11,12.74,20.6,18,34.41,19.07,90.17,19.07,124.59,0,9.44-5.25,16.28-11.39,20.54-17.93-3.89-7.57-11.19-14.72-21.93-20.68-33.67-18.68-88.25-18.68-121.91,0C177,165.1,169.73,172.21,165.84,179.76Z" style="fill:#fff;opacity:0.25"></path></g><path d="M315.23,124.81c-36.72-21.22-96.28-21.22-133,0-18.36,10.6-27.55,24.5-27.55,38.39l6,.15c-.07-12.56,8.53-25.12,25.8-34.7,34.41-19.1,90.17-19.1,124.59,0,17.14,9.51,25.74,22,25.79,34.44l5.95.11C342.77,149.29,333.6,135.41,315.23,124.81Z" style="fill:#BA68C8"></path><path d="M315.23,124.81c-36.72-21.22-96.28-21.22-133,0-18.36,10.6-27.55,24.5-27.55,38.39l6,.15c-.07-12.56,8.53-25.12,25.8-34.7,34.41-19.1,90.17-19.1,124.59,0,17.14,9.51,25.74,22,25.79,34.44l5.95.11C342.77,149.29,333.6,135.41,315.23,124.81Z" style="fill:#fff;opacity:0.88"></path><g id="freepik--Ice--inject-52" style="opacity:0.7000000000000001"><g id="freepik--ice-cube--inject-52"><g style="opacity:0.05"><path d="M247.77,171.91l34.69-12.4A15.44,15.44,0,0,1,296.2,162l28.09,23.84A15.47,15.47,0,0,1,329,199l-6.61,36.24a15.43,15.43,0,0,1-9,10.66l-34.69,12.4a15.43,15.43,0,0,1-13.75-2.51L236.83,232a15.42,15.42,0,0,1-4.71-13.15l6.61-36.25A15.41,15.41,0,0,1,247.77,171.91Z" style="fill:#fff"></path></g><g style="opacity:0.1"><path d="M271.79,257a13.24,13.24,0,0,0,6.64-.35l34.06-12.19a14.28,14.28,0,0,0,8.37-9.85l6.49-35.6A14.32,14.32,0,0,0,323,186.87l-27.58-23.41a14.38,14.38,0,0,0-12.72-2.32l-34.07,12.18a14.31,14.31,0,0,0-8.36,9.86l-6.49,35.59A14.34,14.34,0,0,0,238.12,231l27.59,23.41A13.17,13.17,0,0,0,271.79,257Z" style="fill:#fff"></path></g><g style="opacity:0.15"><path d="M281.26,205.07a12.55,12.55,0,0,0,6.23-.32l34.06-12.18c1.42-.51,2.32-1.3,2.48-2.18s-.4-1.94-1.55-2.92L294.9,164.06a12.63,12.63,0,0,0-5.72-2.49,12.41,12.41,0,0,0-6.22.32l-34.07,12.18c-1.42.5-2.32,1.3-2.48,2.18s.41,1.94,1.55,2.91l27.58,23.41A12.53,12.53,0,0,0,281.26,205.07Z" style="fill:#fff"></path></g><g style="opacity:0.1"><path d="M268.32,254.87c2,.36,2.6-1.88,2.78-2.86l6.48-35.59A13.63,13.63,0,0,0,273.49,205l-27.58-23.41a4.66,4.66,0,0,0-2.1-1.12c-2-.36-2.6,1.88-2.77,2.86l-6.49,35.59a13.63,13.63,0,0,0,4.09,11.43l27.58,23.41a4.57,4.57,0,0,0,2.1,1.12Z" style="fill:#fff"></path></g><g style="opacity:0.05"><path d="M275.8,256.24a4.81,4.81,0,0,0,2.36-.31l34.07-12.18a13.66,13.66,0,0,0,7.85-9.26l6.49-35.59c.18-1,.38-3.3-1.59-3.65a4.68,4.68,0,0,0-2.36.3l-34.07,12.18A13.66,13.66,0,0,0,280.7,217l-6.49,35.59C274,253.56,273.83,255.88,275.8,256.24Z" style="fill:#fff"></path></g><path d="M271.85,256.19a12.55,12.55,0,0,0,6.23-.32l34.07-12.18c1.41-.51,2.32-1.3,2.48-2.18s-.41-1.94-1.56-2.92l-27.58-23.41a12.59,12.59,0,0,0-5.71-2.49,12.44,12.44,0,0,0-6.23.32l-34.07,12.18c-1.41.5-2.32,1.3-2.48,2.18s.41,1.94,1.56,2.91l27.58,23.41A12.44,12.44,0,0,0,271.85,256.19Z" style="fill:#BA68C8;opacity:0.4"></path><path d="M285.73,163.75a2.44,2.44,0,0,1,1.12.34c.79.51.55,1.86.48,2.65-.17,1.91-3.82,22.23-4,24.14a.71.71,0,0,0,.07.52.48.48,0,0,0,.69,0c.41-.37.43-1.1.53-1.61s3.59-19.7,3.71-20.33c.23-1.24.46-2.49.7-3.73a1.76,1.76,0,0,1,.33-.9c1.22-1.32,3.69.24,4.6.59a1.15,1.15,0,0,0,.35.1.35.35,0,0,0,.32-.13.48.48,0,0,0-.06-.52,8.88,8.88,0,0,0-2.26-1.65,11,11,0,0,0-3.32-1.05,11.89,11.89,0,0,0-5.43.29c-1.21.31-2.4.67-3.58,1.06s-2.24.74-3.32,1.2c-.21.09-.42.32-.13.45s.8-.07,1.06-.12c.81-.15,1.61-.36,2.41-.58A15,15,0,0,1,285.73,163.75Z" style="fill:#BA68C8;opacity:0.5"></path><path d="M275.75,165.35c.32.42-.81.59-1,.57s-.3-.32-.08-.47a1.41,1.41,0,0,1,.78-.21A.38.38,0,0,1,275.75,165.35Z" style="fill:#BA68C8;opacity:0.5"></path><path d="M277.31,231.8c-.13.68-.26,1.36-.38,2-.08.43-.25,1-.69,1a.72.72,0,0,1-.73-.55,2.11,2.11,0,0,1,0-1c.12-.65.26-2.3.91-2.69C277.26,230.11,277.43,231.13,277.31,231.8Z" style="fill:#BA68C8;opacity:0.2"></path><path d="M273.55,254a1.42,1.42,0,0,0,.85,1.37,3.87,3.87,0,0,0,1.44.21l2.85.05c.11,0,.25,0,.29.13s-.12.24-.25.29a14.23,14.23,0,0,1-6.44.66,15.43,15.43,0,0,1-6.67-2.91c-1.84-1.33-3.59-3-5.31-4.53-.21-.19-.8-1.14-.31-.92a12.7,12.7,0,0,1,1.52,1.12,49.47,49.47,0,0,0,4,3.07,12.59,12.59,0,0,0,4.63,1.94c.94.16,1.41-.42,1.62-1.29,1.06-4.33,1.76-8.75,2.68-13.11.11-.5.36-1.67,1.15-1.52s.25,1.47.16,2q-.52,3.16-1.06,6.33l-.81,4.86A12.42,12.42,0,0,0,273.55,254Z" style="fill:#BA68C8;opacity:0.2"></path><path d="M251.58,176.74a1,1,0,0,0,0-1,1.21,1.21,0,0,0-1.07-.62,1.4,1.4,0,0,0-.94.33,1.07,1.07,0,0,0-.32.41,1,1,0,0,0,.21,1.24,1.37,1.37,0,0,0,1.12.16A1.56,1.56,0,0,0,251.58,176.74Zm60,22.33c2.59-.66,5.07-1.72,7.68-2.29,1.86-.41,4.43-.38,5.06,1.85a7.09,7.09,0,0,1,.06,2.64c-.12,1.08-.23,2.16-.35,3.24a16.51,16.51,0,0,0-.33,2.88c0,.21.08.46.28.51a.36.36,0,0,0,.35-.16,1.05,1.05,0,0,0,.15-.36c.75-3,1.11-6.16,1.63-9.23a9.63,9.63,0,0,0,.2-1.92c0-.06,0-.13,0-.19a2.06,2.06,0,0,0-1.21-2,4.18,4.18,0,0,0-2.77,0,58.62,58.62,0,0,0-11.35,4.36c-.24.12-.51.31-.49.58A1.24,1.24,0,0,0,311.54,199.07Zm-74.07,26.64c1,2.35,3,4.12,4.92,5.83L257.54,245c.82.73,2.51,2.54,3.76,2a2.15,2.15,0,0,0-.74-1.86c-4.22-4.61-7.32-7.52-11.13-11.35a61.8,61.8,0,0,1-6.94-8c-1.89-2.76-2.06-5.89-1.81-9.17q.23-3.18.56-6.36c.24-2.33.51-6.2.82-8.52.55-4.16.84-8.91,1-11.27.13-1.51-1.16-4.48-1.69-2.28-.24,1-.78,4.15-.93,5.15q-.57,3.79-1.13,7.58l-2.25,15C236.61,219.17,236.14,222.66,237.47,225.71ZM253,180.39c3.13,3.08,6.55,5.86,9.84,8.76s6.87,5.81,10.44,8.55c1.64,1.25,3.3,2.49,5,3.7a9.93,9.93,0,0,0,3.35,1.81,10.17,10.17,0,0,0,5.42-.67q15.87-5,31.38-11.11a2.71,2.71,0,0,0,1.21-.74c.86-1.07-.21-2.59-1.22-3.52q-3.64-3.37-7.36-6.69l-3.72-3.3c-.59-.51-2.13-2.19-3-1.4-.7.62,0,1.66.37,2.25a10,10,0,0,1,1.7,5.08,6.31,6.31,0,0,1-2,4.87,9.89,9.89,0,0,1-3.15,1.65c-2.12.79-4.28,1.5-6.45,2.14a25.26,25.26,0,0,1-8.64,1.3,21.93,21.93,0,0,1-7.11-1.94,98.24,98.24,0,0,1-9-4.72c-3.15-1.76-6.28-3.56-9.43-5.34a30.87,30.87,0,0,0-6.41-3A2.48,2.48,0,0,0,253,178a1.12,1.12,0,0,0-.66,1.48A2.88,2.88,0,0,0,253,180.39Zm25.24,61.08a34.22,34.22,0,0,0-.75,6.53c.06,4.51,4.35,3.93,7.7,3.05,3.13-.82,6.2-1.82,9.24-2.91,3.43-1.22,6.81-2.55,10.22-3.87,3-1.15,6-2.24,8.89-3.65a4.9,4.9,0,0,0,2.09-1.49c.41-.58,1.08-1.36.63-2.11-.8-1.35-4.58-.19-5.82-.08-2.27.22-4.52.57-6.81.57a34.66,34.66,0,0,1-9.61-1.26,10,10,0,0,1-2.9-1.26c-2.7-1.85-3-4.43-3.51-7.37-.57-3.46-.8-7.31-1.37-10.76a2.43,2.43,0,0,0-.73-1.63,1.66,1.66,0,0,0-2.15.46,4.85,4.85,0,0,0-.82,2.25Q280.4,229.7,278.24,241.47Z" style="fill:#fff;opacity:0.15"></path></g></g><g id="freepik--ice--inject-52" style="opacity:0.7000000000000001"><g id="freepik--ice-cube--inject-52"><g style="opacity:0.05"><path d="M325.1,280l-27.2-24.85a15.44,15.44,0,0,0-13.64-3L249.14,263.3a15.43,15.43,0,0,0-9.43,10.31l-7.92,36A15.47,15.47,0,0,0,236,322.91l27.19,24.85a15.45,15.45,0,0,0,13.65,3L312,339.63a15.44,15.44,0,0,0,9.43-10.32l7.91-36A15.42,15.42,0,0,0,325.1,280Z" style="fill:#fff"></path></g><g style="opacity:0.1"><path d="M270.05,349.23a13.13,13.13,0,0,1-6-2.89l-26.71-24.4a14.33,14.33,0,0,1-3.91-12.33l7.78-35.33a14.33,14.33,0,0,1,8.72-9.55l34.49-10.93a14.47,14.47,0,0,1,12.63,2.78L323.77,281a14.3,14.3,0,0,1,3.9,12.33l-7.77,35.33a14.35,14.35,0,0,1-8.72,9.55l-34.49,10.93A13.09,13.09,0,0,1,270.05,349.23Z" style="fill:#fff"></path></g><g style="opacity:0.15"><path d="M281.4,297.65a12.57,12.57,0,0,1-5.62-2.7l-26.71-24.4c-1.11-1-1.64-2.1-1.45-3s1.13-1.63,2.56-2.09l34.49-10.93a13.6,13.6,0,0,1,11.85,2.61l26.71,24.4c1.11,1,1.64,2.1,1.45,3s-1.13,1.63-2.56,2.09l-34.49,10.93A12.51,12.51,0,0,1,281.4,297.65Z" style="fill:#fff"></path></g><g style="opacity:0.1"><path d="M274.08,348.59c-2-.43-1.67-2.74-1.45-3.72l7.77-35.33a13.66,13.66,0,0,1,8.19-9l34.49-10.93a4.7,4.7,0,0,1,2.37-.22c1.95.43,1.66,2.74,1.45,3.71l-7.78,35.33a13.6,13.6,0,0,1-8.18,9l-34.49,10.94a4.82,4.82,0,0,1-2.37.22Z" style="fill:#fff"></path></g><g style="opacity:0.05"><path d="M266.66,347a4.69,4.69,0,0,1-2.07-1.19l-26.71-24.41a13.63,13.63,0,0,1-3.66-11.57L242,274.45c.22-1,.93-3.19,2.88-2.76a4.79,4.79,0,0,1,2.06,1.2l26.71,24.4a13.67,13.67,0,0,1,3.67,11.57l-7.78,35.33C269.32,345.17,268.61,347.38,266.66,347Z" style="fill:#fff"></path></g><path d="M270.32,348.43a12.42,12.42,0,0,1-5.62-2.7L238,321.33c-1.11-1-1.63-2.1-1.44-3s1.12-1.63,2.56-2.09l34.49-10.93A13.6,13.6,0,0,1,285.44,308l26.71,24.4c1.11,1,1.64,2.1,1.44,3s-1.12,1.63-2.55,2.09l-34.49,10.93A12.51,12.51,0,0,1,270.32,348.43Z" style="fill:#BA68C8;opacity:0.4"></path><path d="M293.25,257.82a2.6,2.6,0,0,0-1.17-.13c-.92.17-1.23,1.51-1.47,2.27-.58,1.83-5.07,22-5.61,23.82a.7.7,0,0,1-.27.45.49.49,0,0,1-.64-.27c-.23-.5,0-1.18.14-1.68l4.44-20.19c.26-1.24.53-2.47.8-3.71a1.85,1.85,0,0,0,0-1c-.62-1.69-3.5-1.2-4.48-1.23a1.12,1.12,0,0,1-.36-.05.34.34,0,0,1-.24-.24c0-.18.11-.35.26-.45a8.53,8.53,0,0,1,2.72-.65,10.66,10.66,0,0,1,3.47.32,11.76,11.76,0,0,1,4.89,2.36c1,.75,2,1.54,2.89,2.36s1.78,1.55,2.6,2.39c.17.16.26.46-.05.46s-.71-.37-.94-.51c-.69-.46-1.34-1-2-1.48A15,15,0,0,0,293.25,257.82Z" style="fill:#BA68C8;opacity:0.5"></path><path d="M301.83,263.15c-.46.27.52.86.7.91.33.09.4-.17.26-.41a1.4,1.4,0,0,0-.64-.48A.37.37,0,0,0,301.83,263.15Z" style="fill:#BA68C8;opacity:0.5"></path><path d="M274.71,323.84c-.15.67-.29,1.35-.44,2-.09.42-.14,1,.24,1.2a.73.73,0,0,0,.89-.23,2.06,2.06,0,0,0,.37-.92c.15-.65.65-2.22.2-2.84C275.4,322.29,274.85,323.17,274.71,323.84Z" style="fill:#BA68C8;opacity:0.2"></path><path d="M269.59,345.75a1.39,1.39,0,0,1-1.31.93,3.55,3.55,0,0,1-1.41-.36l-2.64-1.05c-.11,0-.25-.08-.32,0s0,.27.12.37a14,14,0,0,0,5.69,3.09,15.54,15.54,0,0,0,7.27-.09c2.21-.53,4.49-1.43,6.65-2.14.27-.09,1.18-.74.63-.72a11.92,11.92,0,0,0-1.83.44,49.35,49.35,0,0,1-4.88,1.28,12.48,12.48,0,0,1-5,0c-.93-.21-1.14-.93-1-1.81.69-4.4,1.76-8.75,2.59-13.13.1-.5.33-1.68-.46-1.85s-.81,1.27-.93,1.81c-.5,2.08-1,4.17-1.48,6.25-.38,1.6-.75,3.2-1.13,4.8A11.75,11.75,0,0,1,269.59,345.75Z" style="fill:#BA68C8;opacity:0.2"></path><path d="M320.38,283.87a1.39,1.39,0,0,0,1.1.29,1,1,0,0,0,.67-1.07,1.28,1.28,0,0,0-.13-.5,1.49,1.49,0,0,0-.75-.67,1.22,1.22,0,0,0-1.22.16,1,1,0,0,0-.33.92A1.54,1.54,0,0,0,320.38,283.87Zm-63.54-3.11c.12-.24-.06-.52-.23-.73a59.16,59.16,0,0,0-8.78-8.4,4.17,4.17,0,0,0-2.56-1.07,2.05,2.05,0,0,0-1.88,1.37l-.09.18a9.68,9.68,0,0,0-.56,1.83c-.71,3-1.58,6.07-2.06,9.15a.9.9,0,0,0,0,.4.33.33,0,0,0,.26.27c.2,0,.36-.17.45-.36a15.81,15.81,0,0,0,.81-2.78l.93-3.12a7,7,0,0,1,1.08-2.42c1.44-1.81,3.82-.85,5.38.25,2.18,1.54,4.06,3.48,6.2,5.08A1.23,1.23,0,0,0,256.84,280.76ZM318,324.69,321.67,310l1.89-7.43c.25-1,1-4.1,1.13-5.11.36-2.23-2,0-2.44,1.45-.72,2.26-2.29,6.74-3.4,10.8-.61,2.26-1.85,5.93-2.53,8.17q-.93,3.06-1.94,6.09c-1,3.12-2.4,5.94-5.22,7.75a61.84,61.84,0,0,1-9.5,4.73c-5,2.07-9,3.55-14.66,6.17a2.17,2.17,0,0,0-1.4,1.43c.95,1,3.2,0,4.25-.4L307,337.09c2.43-.83,4.94-1.71,6.79-3.48C316.21,331.32,317.13,327.91,318,324.69Zm.06-39.46a1.11,1.11,0,0,0,0-1.62,2.36,2.36,0,0,0-1.22-.4,29.93,29.93,0,0,0-7.07.28c-3.59.42-7.18.86-10.76,1.27a97.62,97.62,0,0,1-10.1.89,21.73,21.73,0,0,1-7.31-1,25.23,25.23,0,0,1-7.46-4.54q-2.64-2.13-5.12-4.46a9.65,9.65,0,0,1-2.27-2.75,6.26,6.26,0,0,1,.06-5.25,10,10,0,0,1,3.53-4c.57-.4,1.61-1.09,1.21-1.93-.51-1.07-2.58-.11-3.32.13l-4.71,1.6q-4.69,1.62-9.37,3.32c-1.29.48-2.87,1.46-2.49,2.79a2.76,2.76,0,0,0,.84,1.14q12,11.6,24.64,22.38c1.41,1.2,2.91,2.43,4.74,2.71a10,10,0,0,0,3.79-.37q3-.71,6-1.49c4.35-1.14,8.66-2.41,12.93-3.85s8.38-2.64,12.46-4.28A2.67,2.67,0,0,0,318,285.23ZM275.24,309a4.86,4.86,0,0,0,.11-2.39,1.66,1.66,0,0,0-1.8-1.25,2.45,2.45,0,0,0-1.31,1.23c-1.86,3-3.56,6.42-5.42,9.38-1.59,2.53-2.87,4.78-6.08,5.45a10.15,10.15,0,0,1-3.16,0,34.68,34.68,0,0,1-9.36-2.56c-2.1-.88-4.05-2.08-6.06-3.15-1.1-.59-4.13-3.11-5.4-2.18-.7.52-.38,1.49-.23,2.19a5,5,0,0,0,1.35,2.19c2.09,2.4,4.5,4.59,6.8,6.79,2.62,2.54,5.23,5.08,7.92,7.53,2.38,2.17,4.83,4.28,7.4,6.25,2.75,2.11,6.48,4.3,8.28.16a34.31,34.31,0,0,0,1.83-6.31Q272.69,320.71,275.24,309Z" style="fill:#fff;opacity:0.15"></path></g></g><path d="M370.36,94.91l-11.81,13.18L325.53,70c-2.86-3.27-7.92-1.34-9,3.45L255.72,356.81c-2.82,1.63-8.31.4-11.13-1.23-1.48-.85-3.29-2.51-3.19-3.64l.78-3.62L302.27,68.37c3.86-18.07,23-25.46,33.8-13.07Z" style="fill:#BA68C8"></path><path d="M343.78,64.21c-1,9,.94,21.17,2.72,30L332.3,77.81c-1.6-7.82-2.54-17.72.38-25.52a18.59,18.59,0,0,1,3.39,3Z" style="fill:#fafafa"></path><path d="M361.49,98c-3.21,3.68-4.53,8.2-2.95,10.1s5.47.47,8.68-3.21,4.54-8.21,2.95-10.11S364.7,94.31,361.49,98Z" style="fill:#BA68C8"></path><path d="M361.49,98c-3.21,3.68-4.53,8.2-2.95,10.1s5.47.47,8.68-3.21,4.54-8.21,2.95-10.11S364.7,94.31,361.49,98Z" style="opacity:0.25"></path><path d="M284.5,151.14l-4.18,19.49c-.55,15,5.09,24.45,10.21,24l4.18-19.47C289.59,175.6,284,166.13,284.5,151.14Z" style="fill:#fafafa"></path><path d="M275.8,191.68l-4.18,19.48c-.56,15,5.08,24.46,10.2,24L286,215.72C280.88,216.14,275.25,206.67,275.8,191.68Z" style="fill:#fafafa"></path><path d="M267.1,232.22l-4.18,19.48c-.56,15,5.08,24.45,10.2,24l4.18-19.47C272.18,256.68,266.54,247.2,267.1,232.22Z" style="fill:#fafafa"></path><path d="M258.4,272.75l-4.18,19.48c-.56,15,5.08,24.46,10.2,24l4.18-19.47C263.48,297.21,257.84,287.74,258.4,272.75Z" style="fill:#fafafa"></path><path d="M249.7,313.29l-4.18,19.48c-.56,15,5.08,24.45,10.2,24l4.18-19.48C254.78,337.75,249.14,328.28,249.7,313.29Z" style="fill:#fafafa"></path><path d="M293.39,109.77l-4.25,19.79c-.56,15,5.11,24.3,10.23,23.88l4.2-19.54C298.45,134.31,292.83,124.76,293.39,109.77Z" style="fill:#fafafa"></path><path d="M302.27,68.37,298,88.25c-.56,15,5.1,24.36,10.22,23.94l4.18-19.48C307.29,93.12,301.72,83.36,302.27,68.37Z" style="fill:#fafafa"></path><path d="M325,69.43a4.53,4.53,0,0,0-1.88-1A5.33,5.33,0,0,0,317.56,71a7.22,7.22,0,0,0-.65,1.27,8.26,8.26,0,0,0-.36,1.16h0L255.72,356.81a9.11,9.11,0,0,1-5.4.62c8.24-38.28,55.52-258.6,58.83-275.48C312.61,64.32,317.2,61.94,325,69.43Z" style="opacity:0.15"></path><path d="M293.38,181.34,255.71,356.81c-2.81,1.63-8.3.4-11.12-1.23-1.48-.86-3.29-2.51-3.19-3.63l.77-3.63,36-167.82c-.21,1.26.53,2.57,2.2,3.53a11.93,11.93,0,0,0,10.79,0A4,4,0,0,0,293.38,181.34Z" style="fill:#BA68C8;opacity:0.35000000000000003"></path><path d="M293.38,181.34,255.71,356.81c-2.81,1.63-8.3.4-11.12-1.23-1.48-.86-3.29-2.51-3.19-3.63l.77-3.63,36-167.82c-.21,1.26.53,2.57,2.2,3.53a11.93,11.93,0,0,0,10.79,0A4,4,0,0,0,293.38,181.34Z" style="fill:#fff;opacity:0.35000000000000003"></path><g id="freepik--ice--inject-52" style="opacity:0.7000000000000001"><g id="freepik--ice-cube--inject-52"><g style="opacity:0.05"><path d="M239.32,192.77l-36.47-5.2a15.46,15.46,0,0,0-13,5.2l-22.74,29a15.44,15.44,0,0,0-2,13.83l13.73,34.19a15.44,15.44,0,0,0,11,8.62l36.47,5.21a15.49,15.49,0,0,0,13-5.21l22.74-29a15.43,15.43,0,0,0,2-13.83l-13.73-34.19A15.44,15.44,0,0,0,239.32,192.77Z" style="fill:#fff"></path></g><g style="opacity:0.1"><path d="M232.83,281a13.08,13.08,0,0,1-6.57,1l-35.81-5.11a14.32,14.32,0,0,1-10.18-8l-13.48-33.58a14.33,14.33,0,0,1,1.83-12.8L191,194a14.43,14.43,0,0,1,12-4.82l35.82,5.11a14.32,14.32,0,0,1,10.17,8l13.48,33.58a14.3,14.3,0,0,1-1.83,12.8l-22.33,28.46A13.06,13.06,0,0,1,232.83,281Z" style="fill:#fff"></path></g><g style="opacity:0.15"><path d="M213.15,232a12.63,12.63,0,0,1-6.16.94l-35.82-5.11c-1.49-.21-2.53-.81-2.87-1.64s0-2,.94-3.17l22.33-28.46a12.67,12.67,0,0,1,5.1-3.59,12.52,12.52,0,0,1,6.17-.93l35.81,5.11c1.49.21,2.54.81,2.87,1.64s0,2-.94,3.16l-22.33,28.46A12.51,12.51,0,0,1,213.15,232Z" style="fill:#fff"></path></g><g style="opacity:0.1"><path d="M235.8,278.17c-1.85.74-2.92-1.33-3.29-2.25L219,242.35a13.65,13.65,0,0,1,1.71-12l22.34-28.46a4.71,4.71,0,0,1,1.83-1.52c1.86-.75,2.92,1.32,3.29,2.25l13.49,33.57a13.65,13.65,0,0,1-1.72,12l-22.33,28.46a4.73,4.73,0,0,1-1.84,1.52Z" style="fill:#fff"></path></g><g style="opacity:0.05"><path d="M228.75,281a4.64,4.64,0,0,1-2.38.17l-35.81-5.11a13.62,13.62,0,0,1-9.55-7.49L167.53,235c-.37-.93-1-3.16.82-3.9a4.61,4.61,0,0,1,2.37-.17L206.54,236a13.62,13.62,0,0,1,9.55,7.49l13.48,33.57C229.94,278,230.61,280.26,228.75,281Z" style="fill:#fff"></path></g><path d="M232.61,280.16a12.65,12.65,0,0,1-6.17.94L190.63,276c-1.49-.22-2.54-.81-2.87-1.64s0-2,.94-3.17L211,242.72a13.57,13.57,0,0,1,11.26-4.52l35.82,5.11c1.49.21,2.53.81,2.87,1.63s0,2-.94,3.17l-22.33,28.46A12.51,12.51,0,0,1,232.61,280.16Z" style="fill:#BA68C8;opacity:0.4"></path><path d="M200.5,192.38a2.51,2.51,0,0,0-1,.56c-.66.65-.16,1.93.07,2.69.55,1.84,8.19,21,8.78,22.84a.75.75,0,0,1,0,.53.5.5,0,0,1-.68.14c-.48-.29-.65-1-.84-1.48l-7.71-19.17c-.48-1.17-1-2.35-1.43-3.52a1.68,1.68,0,0,0-.51-.81c-1.46-1-3.56,1-4.39,1.5a1,1,0,0,1-.32.17.37.37,0,0,1-.34-.07c-.13-.12-.1-.34,0-.52a8.74,8.74,0,0,1,1.88-2.06,10.62,10.62,0,0,1,3.05-1.7,11.84,11.84,0,0,1,5.38-.8c1.24.06,2.48.17,3.71.31s2.34.29,3.49.51c.23.05.48.24.22.42s-.79.1-1.06.1c-.83,0-1.65,0-2.48-.09A15,15,0,0,0,200.5,192.38Z" style="fill:#BA68C8;opacity:0.5"></path><path d="M210.6,192c-.23.48.9.42,1.08.35s.24-.36,0-.48a1.45,1.45,0,0,0-.8,0A.35.35,0,0,0,210.6,192Z" style="fill:#BA68C8;opacity:0.5"></path><path d="M222.38,257.37l.78,1.92c.16.4.44.88.87.86a.73.73,0,0,0,.61-.69,2.07,2.07,0,0,0-.21-1c-.25-.62-.71-2.21-1.43-2.46C222.08,255.7,222.12,256.74,222.38,257.37Z" style="fill:#BA68C8;opacity:0.2"></path><path d="M230.5,278.35a1.4,1.4,0,0,1-.56,1.51,3.82,3.82,0,0,1-1.37.5l-2.78.62c-.11,0-.24.07-.26.18s.17.22.31.23a14.08,14.08,0,0,0,6.44-.64,15.56,15.56,0,0,0,6-4.18c1.53-1.68,2.9-3.71,4.28-5.51.18-.22.57-1.27.13-.95a10.3,10.3,0,0,0-1.27,1.39,48.17,48.17,0,0,1-3.32,3.81,12.47,12.47,0,0,1-4.14,2.83c-.89.35-1.47-.13-1.85-.93-1.9-4-3.47-8.22-5.25-12.32-.2-.46-.68-1.56-1.43-1.26s.05,1.5.25,2q1.16,3,2.3,6l1.77,4.6A11.3,11.3,0,0,1,230.5,278.35Z" style="fill:#BA68C8;opacity:0.2"></path><path d="M237.59,198.61a1.33,1.33,0,0,0,1.07-.38,1.05,1.05,0,0,0,0-1.26,1.16,1.16,0,0,0-.4-.33,1.47,1.47,0,0,0-1-.14,1.22,1.22,0,0,0-.92.82,1,1,0,0,0,.24,1A1.61,1.61,0,0,0,237.59,198.61Zm-54.25,33.24c0-.27-.33-.4-.59-.48a59.23,59.23,0,0,0-12-2,4.15,4.15,0,0,0-2.72.56,2,2,0,0,0-.78,2.19,1.36,1.36,0,0,0,0,.2,10,10,0,0,0,.58,1.83c1.12,2.91,2.11,5.9,3.45,8.71a1.11,1.11,0,0,0,.22.34.39.39,0,0,0,.37.08c.19-.09.2-.35.17-.56a15.79,15.79,0,0,0-.9-2.75l-1-3.11a6.84,6.84,0,0,1-.47-2.6c.17-2.31,2.68-2.85,4.58-2.82,2.68,0,5.32.58,8,.7A1.22,1.22,0,0,0,183.34,231.85Zm75.24,1.86-5.21-14.25q-1.31-3.6-2.63-7.2c-.34-.95-1.51-3.93-1.94-4.86-1-2.05-1.62,1.12-1.2,2.57.67,2.27,1.9,6.86,3.28,10.84.77,2.21,1.81,5.94,2.51,8.17.64,2,1.24,4.08,1.83,6.12.89,3.17,1.36,6.27.05,9.36a61.63,61.63,0,0,1-5.18,9.25c-3,4.53-5.42,8-8.64,13.35a2.21,2.21,0,0,0-.35,2c1.33.27,2.63-1.84,3.29-2.73l12.14-16.2c1.54-2.05,3.12-4.19,3.65-6.7C260.88,240.16,259.72,236.83,258.58,233.71ZM236.4,201.07a1.11,1.11,0,0,0-.94-1.31,2.4,2.4,0,0,0-1.24.35,30.73,30.73,0,0,0-5.69,4.22c-2.72,2.37-5.43,4.76-8.17,7.12a100.42,100.42,0,0,1-7.83,6.42,22.09,22.09,0,0,1-6.59,3.32,25,25,0,0,1-8.72.45c-2.26-.18-4.51-.45-6.75-.79a10.06,10.06,0,0,1-3.42-1,6.32,6.32,0,0,1-2.91-4.38,10.09,10.09,0,0,1,.65-5.31c.25-.66.72-1.82-.09-2.29-1-.59-2.19,1.37-2.66,2q-1.5,2-3,4-3,4-5.87,8c-.81,1.11-1.55,2.82-.49,3.7A2.8,2.8,0,0,0,174,226q16.41,2.85,33,4.61c1.84.19,3.78.36,5.44-.43a10.11,10.11,0,0,0,2.93-2.45q2.1-2.29,4.13-4.63,4.44-5.08,8.52-10.46c2.64-3.5,5.44-6.91,7.89-10.56A2.62,2.62,0,0,0,236.4,201.07Zm-21.93,43.76a4.79,4.79,0,0,0-1.26-2,1.65,1.65,0,0,0-2.19,0,2.45,2.45,0,0,0-.39,1.75c.14,3.49.68,7.31.81,10.81.11,3,.32,5.57-1.95,7.93a10.4,10.4,0,0,1-2.59,1.81,34.72,34.72,0,0,1-9.17,3.16c-2.24.46-4.52.56-6.79.81-1.23.13-5.16-.24-5.68,1.24-.29.82.52,1.45,1,1.94a5,5,0,0,0,2.34,1c3.09.8,6.31,1.25,9.45,1.78,3.6.61,7.18,1.24,10.79,1.76,3.19.45,6.4.81,9.63,1,3.46.19,7.77-.1,6.93-4.53a34.59,34.59,0,0,0-2-6.25Q218.95,255.92,214.47,244.83Z" style="fill:#fff;opacity:0.15"></path></g></g><g id="freepik--ice--inject-52" style="opacity:0.7000000000000001"><g id="freepik--ice-cube--inject-52"><g style="opacity:0.05"><path d="M177.09,315,205,290.9a15.44,15.44,0,0,1,13.73-2.61l34.78,12.15A15.43,15.43,0,0,1,262.63,311l6.87,36.19a15.45,15.45,0,0,1-4.61,13.2l-27.91,24a15.44,15.44,0,0,1-13.73,2.61l-34.78-12.15a15.46,15.46,0,0,1-9.12-10.59l-6.87-36.19A15.45,15.45,0,0,1,177.09,315Z" style="fill:#fff"></path></g><g style="opacity:0.1"><path d="M230.11,385.73a13.12,13.12,0,0,0,6.07-2.71l27.41-23.61a14.34,14.34,0,0,0,4.26-12.21l-6.75-35.54a14.28,14.28,0,0,0-8.44-9.8l-34.15-11.93a14.39,14.39,0,0,0-12.7,2.41L178.4,316a14.35,14.35,0,0,0-4.27,12.21l6.75,35.54a14.31,14.31,0,0,0,8.44,9.8l34.15,11.93A13.17,13.17,0,0,0,230.11,385.73Z" style="fill:#fff"></path></g><g style="opacity:0.15"><path d="M220.26,333.85a12.64,12.64,0,0,0,5.7-2.54l27.41-23.62c1.14-1,1.7-2,1.53-2.92s-1.08-1.67-2.5-2.16l-34.15-11.93a13.65,13.65,0,0,0-11.93,2.26l-27.41,23.61c-1.13,1-1.69,2.05-1.53,2.93s1.08,1.66,2.5,2.16L214,333.57A12.59,12.59,0,0,0,220.26,333.85Z" style="fill:#fff"></path></g><g style="opacity:0.1"><path d="M226.1,385c2-.37,1.74-2.69,1.56-3.67l-6.75-35.54a13.66,13.66,0,0,0-7.92-9.2l-34.16-11.93a4.65,4.65,0,0,0-2.36-.28c-2,.37-1.74,2.68-1.56,3.66l6.75,35.55a13.6,13.6,0,0,0,7.92,9.19l34.15,11.93a4.6,4.6,0,0,0,2.37.29Z" style="fill:#fff"></path></g><g style="opacity:0.05"><path d="M233.56,383.56a4.77,4.77,0,0,0,2.1-1.14l27.41-23.61a13.63,13.63,0,0,0,4-11.46l-6.74-35.55c-.19-1-.83-3.21-2.8-2.84a4.64,4.64,0,0,0-2.09,1.14L228,333.71a13.67,13.67,0,0,0-4,11.46l6.75,35.54C231,381.69,231.6,383.93,233.56,383.56Z" style="fill:#fff"></path></g><path d="M229.86,384.93a12.54,12.54,0,0,0,5.7-2.54L263,358.78c1.14-1,1.7-2,1.53-2.93s-1.08-1.66-2.5-2.16l-34.15-11.93A13.61,13.61,0,0,0,215.92,344l-27.4,23.61c-1.14,1-1.7,2.05-1.54,2.92s1.08,1.67,2.5,2.16l34.16,11.94A12.55,12.55,0,0,0,229.86,384.93Z" style="fill:#BA68C8;opacity:0.4"></path><path d="M209.58,293.69a2.46,2.46,0,0,1,1.17-.1c.92.2,1.18,1.54,1.4,2.31.53,1.85,4.43,22.12,4.91,24a.79.79,0,0,0,.26.46.5.5,0,0,0,.65-.26c.25-.49,0-1.18-.09-1.68L214,298.09l-.69-3.74a1.71,1.71,0,0,1,0-1c.67-1.67,3.53-1.1,4.51-1.1a1.11,1.11,0,0,0,.36,0,.38.38,0,0,0,.25-.24c.05-.18-.1-.34-.24-.46a8.82,8.82,0,0,0-2.71-.72,10.53,10.53,0,0,0-3.47.21,11.83,11.83,0,0,0-5,2.23c-1,.72-2,1.48-2.95,2.26s-1.83,1.5-2.67,2.32c-.17.16-.27.45,0,.47s.72-.35,1-.49c.7-.44,1.37-.93,2-1.42A15.08,15.08,0,0,1,209.58,293.69Z" style="fill:#BA68C8;opacity:0.5"></path><path d="M200.84,298.77c.45.28-.54.84-.72.88-.34.08-.4-.18-.25-.41a1.46,1.46,0,0,1,.65-.47A.35.35,0,0,1,200.84,298.77Z" style="fill:#BA68C8;opacity:0.5"></path><path d="M226.19,360.21c.13.68.25,1.37.38,2.05.08.43.11,1-.27,1.19a.73.73,0,0,1-.89-.25,2.05,2.05,0,0,1-.34-.94c-.13-.65-.59-2.24-.12-2.84C225.54,358.65,226.07,359.54,226.19,360.21Z" style="fill:#BA68C8;opacity:0.2"></path><path d="M230.66,382.27a1.43,1.43,0,0,0,1.29,1,3.76,3.76,0,0,0,1.42-.32l2.67-1c.11,0,.25-.07.32,0s0,.27-.13.36a14.16,14.16,0,0,1-5.78,2.93,15.52,15.52,0,0,1-7.26-.31c-2.2-.59-4.45-1.56-6.59-2.33-.26-.1-1.16-.77-.61-.74a11.46,11.46,0,0,1,1.81.5c1.61.51,3.21,1.06,4.85,1.41a12.32,12.32,0,0,0,5,.15c.94-.19,1.17-.89,1.05-1.78-.57-4.42-1.5-8.8-2.21-13.2-.08-.5-.27-1.69.52-1.83s.76,1.28.88,1.83l1.29,6.29,1,4.83A11.57,11.57,0,0,0,230.66,382.27Z" style="fill:#BA68C8;opacity:0.2"></path><path d="M182.39,318.08a1,1,0,0,0-.31-.92,1.22,1.22,0,0,0-1.22-.2,1.47,1.47,0,0,0-.76.65,1.21,1.21,0,0,0-.15.5,1,1,0,0,0,.64,1.08,1.36,1.36,0,0,0,1.11-.26A1.61,1.61,0,0,0,182.39,318.08Zm64-.72c2.19-1.54,4.12-3.43,6.35-4.9,1.59-1,4-1.94,5.39-.09a7.07,7.07,0,0,1,1,2.44l.84,3.15a15.9,15.9,0,0,0,.73,2.81c.09.18.24.4.44.37a.37.37,0,0,0,.27-.27.86.86,0,0,0,0-.39c-.38-3.1-1.17-6.15-1.79-9.21a9.21,9.21,0,0,0-.5-1.85l-.08-.18a2.07,2.07,0,0,0-1.84-1.42,4.19,4.19,0,0,0-2.59,1,59.23,59.23,0,0,0-9,8.14c-.18.21-.36.48-.24.73A1.24,1.24,0,0,0,246.36,317.36Zm-59.53,51.49c1.8,1.82,4.28,2.77,6.68,3.67l19,7.1c1,.39,3.26,1.47,4.23.52a2.19,2.19,0,0,0-1.36-1.47c-5.59-2.78-9.53-4.38-14.47-6.59a61.73,61.73,0,0,1-9.35-5c-2.77-1.9-4.05-4.76-5-7.91-.62-2-1.2-4.09-1.76-6.14-.62-2.26-1.75-6-2.3-8.24-1-4.09-2.42-8.62-3.08-10.9-.42-1.45-2.69-3.75-2.39-1.51.13,1,.76,4.15,1,5.14.55,2.49,1.11,5,1.67,7.48q1.65,7.41,3.29,14.81C183.67,363.05,184.49,366.48,186.83,368.85ZM185,321c4,1.75,8.22,3.11,12.33,4.63s8.5,3,12.82,4.23q3,.87,6,1.66a10,10,0,0,0,3.79.49c1.83-.23,3.37-1.42,4.81-2.57q13-10.41,25.29-21.66a2.69,2.69,0,0,0,.86-1.12c.42-1.31-1.12-2.34-2.4-2.85q-4.62-1.85-9.28-3.6l-4.66-1.73c-.72-.27-2.77-1.29-3.31-.23-.43.83.6,1.55,1.16,2a10.06,10.06,0,0,1,3.41,4.13,6.29,6.29,0,0,1-.09,5.25,10.33,10.33,0,0,1-2.35,2.68c-1.7,1.5-3.45,2.93-5.26,4.31a25.2,25.2,0,0,1-7.58,4.32,22.1,22.1,0,0,1-7.34.75,96.85,96.85,0,0,1-10.06-1.19c-3.58-.51-7.15-1.06-10.72-1.58a30,30,0,0,0-7.06-.49,2.4,2.4,0,0,0-1.24.37,1.1,1.1,0,0,0-.08,1.61A2.82,2.82,0,0,0,185,321Zm45.52,47.92a34,34,0,0,0,1.64,6.36c1.68,4.19,5.48,2.11,8.28.08,2.63-1.89,5.14-3.93,7.58-6,2.76-2.38,5.44-4.84,8.14-7.29,2.36-2.14,4.83-4.26,7-6.6a4.92,4.92,0,0,0,1.42-2.15c.17-.69.51-1.65-.17-2.19-1.24-1-4.35,1.46-5.46,2-2,1-4,2.15-6.16,3a34.33,34.33,0,0,1-9.42,2.28,9.85,9.85,0,0,1-3.16-.13c-3.19-.75-4.4-3-5.92-5.62-1.77-3-3.37-6.52-5.15-9.54-.31-.52-.67-1.1-1.26-1.26a1.65,1.65,0,0,0-1.84,1.2,4.73,4.73,0,0,0,0,2.39Q228.31,357.15,230.54,368.9Z" style="fill:#fff;opacity:0.15"></path></g></g><path d="M314.56,202l-8.9,217.08a107.51,107.51,0,0,1-27.16,9.59l2.55-214.44A117.36,117.36,0,0,0,314.56,202Z" style="fill:#fff;opacity:0.2"></path><path d="M206.74,211.79a110.41,110.41,0,0,1-24.51-10.19c-9.45-5.46-16.45-11.78-21-18.52a35.3,35.3,0,0,1-6.48-18.57l9.38,218.38v.89c.38,12.21,8.65,24.36,24.78,33.67a100.24,100.24,0,0,0,24.46,9.85Z" style="opacity:0.1"></path><g id="freepik--lime-slice--inject-52"><path d="M229.5,149.59c0,13.56-4.7,23.09-12.39,27.55l-5.8,3.36c-7.67,4.47-18.31,3.86-30.07-2.9q-.9-.51-1.8-1.08V133l-5.17-3c-9.52,7.1-15.58,15.26-18.15,23.71-10.62-15-17.53-33.39-17.57-49.68,0-13.56,4.7-23.1,12.38-27.56l5.8-3.37c7.68-4.46,18.32-3.84,30.07,2.91C210.32,89.55,229.43,122.47,229.5,149.59Z" style="fill:#BA68C8"></path><path d="M229.5,149.59c0,13.56-4.7,23.09-12.39,27.55l-5.8,3.36c-7.67,4.47-18.31,3.86-30.07-2.9-.6-.35-1.21-.7-1.8-1.08V146.09l43.9-25.34C227.23,130.37,229.48,140.32,229.5,149.59Z" style="opacity:0.1"></path><path d="M223.71,153c0,13.55-4.71,23.1-12.39,27.55s-18.32,3.85-30.08-2.9q-.9-.51-1.8-1.08V133l-5.17-3c-9.52,7.1-15.58,15.26-18.15,23.71-10.63-15-17.54-33.39-17.58-49.68,0-13.56,4.71-23.1,12.39-27.56s18.32-3.84,30.08,2.91C204.52,92.91,223.64,125.83,223.71,153Z" style="fill:#BA68C8"></path><path d="M223.71,153c0,13.55-4.71,23.1-12.39,27.55s-18.32,3.85-30.08-2.9q-.9-.51-1.8-1.08V133l-5.17-3c-9.52,7.1-15.58,15.26-18.15,23.71-10.63-15-17.54-33.39-17.58-49.68,0-13.56,4.71-23.1,12.39-27.56s18.32-3.84,30.08,2.91C204.52,92.91,223.64,125.83,223.71,153Z" style="fill:#fff;opacity:0.30000000000000004"></path><g id="freepik--Orange--inject-52"><g id="freepik--Top--inject-52"><path d="M209.44,177.08c-8.22,4.79-19.18,3-30-3.8V133l-5.17-3C165.74,136.39,160,143.6,157,151.1q-2.07-3-4-6.26c-15.64-26.83-15.75-55.9-.25-64.91s40.74,5.42,56.38,32.24S224.94,168.07,209.44,177.08Z" style="fill:#fafafa"></path><path d="M177.82,84.84a43.47,43.47,0,0,0-4.12-1.58,41.16,41.16,0,0,0-4.07-1.1c-3.94-.82-6.1,3.09-4.47,8L176,123c.49,1.5,2.12,2,2.38.77L184,96.32C184.84,92.21,181.84,86.61,177.82,84.84Zm11.39,82.54-9.77-24.51v25.52a11.85,11.85,0,0,0,3.43,3.39c.63.38,1.28.73,1.92,1.07s1.27.62,1.89.9C189.8,175.12,191,172,189.21,167.38Zm20.2-24.26L187.24,136c-1.22-.38-1.57,1.3-.51,2.46l19.2,21.14c3.56,3.91,8.16,3.82,9.29-.22.23-.81.43-1.63.61-2.48s.34-1.72.46-2.6C216.93,150,213.52,144.43,209.41,143.12Zm-5,18.52-22.37-24.29c-1-1.11-2.05-.49-1.56.91l11.66,30.52c1.59,4.53,5.74,7.93,8.56,6.88a18.88,18.88,0,0,0,5.47-3.19C208.5,170.54,207.59,165.24,204.43,161.64Zm-44.24-19.28c-1,.59-1.32,2.17-.95,4.12a44.06,44.06,0,0,1,3.95-5.87Zm12.5-21.09-9.45-28.86c-1.72-5-6.31-8.51-9.29-7.17-.59.28-1.17.58-1.74.91a16.49,16.49,0,0,0-1.64,1.07c-2.65,1.92-1.82,7.67,1.65,11.6L171,122.24C172.07,123.4,173.2,122.75,172.69,121.27Zm41.15,12.15c-.4-1.57-.87-3.15-1.39-4.74s-1.15-3.25-1.8-4.84c-1.85-4.52-6.28-7.2-9.05-5.59l-18.67,10.86c-.85.5-.22,2.4.92,2.77l25,8.13C212.56,141.23,215,138,213.84,133.42ZM199.4,104c-.66-.77-1.32-1.52-2-2.26s-1.37-1.46-2.08-2.15c-3.52-3.47-7.88-2.89-8.81,1.14l-5.09,21.79c-.28,1.2,1.07,2.67,2,2.14l16.42-9.56C202.84,113.31,202.65,107.83,199.4,104Zm-28.49,21.91-20.08-25c-3-3.74-6.31-4.31-6.76-1.13a33.21,33.21,0,0,0-.3,3.42c-.05,1.2,0,2.44,0,3.71.19,3.75,3.31,8.81,6.4,10.42L170.83,128C171.77,128.45,171.82,127,170.91,125.88ZM169,129.73l-17.13-8.87c-3.16-1.64-4.67,1.19-3,5.75.33.92.68,1.83,1,2.76s.75,1.84,1.14,2.75c2,4.59,5.94,7.89,8,6.71l11-6.43C170.66,132.05,169.92,130.22,169,129.73Z" style="fill:#BA68C8"></path><path d="M160.19,142.36c-1,.59-1.32,2.17-.95,4.12a44.06,44.06,0,0,1,3.95-5.87Zm17.63-57.52a43.47,43.47,0,0,0-4.12-1.58,41.16,41.16,0,0,0-4.07-1.1c-3.94-.82-6.1,3.09-4.47,8L176,123c.49,1.5,2.12,2,2.38.77L184,96.32C184.84,92.21,181.84,86.61,177.82,84.84Zm11.39,82.54-9.77-24.51v25.52a11.85,11.85,0,0,0,3.43,3.39c.63.38,1.28.73,1.92,1.07s1.27.62,1.89.9C189.8,175.12,191,172,189.21,167.38Zm15.22-5.74-22.37-24.29c-1-1.11-2.05-.49-1.56.91l11.66,30.52c1.59,4.53,5.74,7.93,8.56,6.88a18.88,18.88,0,0,0,5.47-3.19C208.5,170.54,207.59,165.24,204.43,161.64Zm5-18.52L187.24,136c-1.22-.38-1.57,1.3-.51,2.46l19.2,21.14c3.56,3.91,8.16,3.82,9.29-.22.23-.81.43-1.63.61-2.48s.34-1.72.46-2.6C216.93,150,213.52,144.43,209.41,143.12ZM199.4,104c-.66-.77-1.32-1.52-2-2.26s-1.37-1.46-2.08-2.15c-3.52-3.47-7.88-2.89-8.81,1.14l-5.09,21.79c-.28,1.2,1.07,2.67,2,2.14l16.42-9.56C202.84,113.31,202.65,107.83,199.4,104Zm14.44,29.45c-.4-1.57-.87-3.15-1.39-4.74s-1.15-3.25-1.8-4.84c-1.85-4.52-6.28-7.2-9.05-5.59l-18.67,10.86c-.85.5-.22,2.4.92,2.77l25,8.13C212.56,141.23,215,138,213.84,133.42Zm-42.93-7.54-20.08-25c-3-3.74-6.31-4.31-6.76-1.13a33.21,33.21,0,0,0-.3,3.42c-.05,1.2,0,2.44,0,3.71.19,3.75,3.31,8.81,6.4,10.42L170.83,128C171.77,128.45,171.82,127,170.91,125.88Zm1.78-4.61-9.45-28.86c-1.72-5-6.31-8.51-9.29-7.17-.59.28-1.17.58-1.74.91a16.49,16.49,0,0,0-1.64,1.07c-2.65,1.92-1.82,7.67,1.65,11.6L171,122.24C172.07,123.4,173.2,122.75,172.69,121.27ZM169,129.73l-17.13-8.87c-3.16-1.64-4.67,1.19-3,5.75.33.92.68,1.83,1,2.76s.75,1.84,1.14,2.75c2,4.59,5.94,7.89,8,6.71l11-6.43C170.66,132.05,169.92,130.22,169,129.73Z" style="fill:#fff;opacity:0.45"></path></g></g></g><g id="freepik--Cherry--inject-52"><path d="M180.73,209.73c17.86,10,25,3,29.73.8,5.54-2.57,13.69-4.61,18.16-17.67,5.52-16.15-.72-31.76-13-38.12s-17.75-1.09-25.9,2c-9,3.43-17.06,3.72-22.5,16.66C160.87,188.48,169,203.16,180.73,209.73Z" style="fill:#BA68C8"></path><path d="M228.62,192.86c5.52-16.15-.72-31.76-13-38.12s-17.75-1.09-25.9,2c-9,3.43-17.06,3.72-22.5,16.66h0c.69-1.28,1.6-2.82,2.41-4,5.87-8.72,13.74-8.59,22.62-12.18,7.29-3.18,12-5.56,19.86-2.35C227.33,160.68,232.69,177.9,228.62,192.86Z" style="fill:#fff;opacity:0.1"></path><path d="M187.27,161.21a10.87,10.87,0,0,1,3.33-1,4.42,4.42,0,0,1,3.27.91.59.59,0,0,1,.2.24.58.58,0,0,1-.09.49c-.49.88-1.63,1.11-2.59,1.42a8.49,8.49,0,0,0-3.58,2.28c-.71.75-1.35,2-2.49,2.16a3.41,3.41,0,0,1-2.23-1.05c-1.33-1-1-1.87.13-3A12.13,12.13,0,0,1,187.27,161.21Z" style="fill:#fff;opacity:0.1"></path><path d="M200.82,163.79c-.07-.14-.36-.3-.43-.07-1.23,4.14-4.26,8.08-8.9,8.19a14.06,14.06,0,0,1-6.78-1.88,1.15,1.15,0,0,0-.5-.17.36.36,0,0,0-.39.28c0,.17.11.32.24.44a13.81,13.81,0,0,0,4.53,3,9,9,0,0,0,4.56.61C197.19,173.52,203,168.33,200.82,163.79Z" style="fill:#fff;opacity:0.1"></path><path d="M195.7,164c2.47.45,3.15,2.36,1.53,4.28a8.7,8.7,0,0,1-7.41,2.65c-2.47-.45-3.15-2.36-1.53-4.28A8.7,8.7,0,0,1,195.7,164Z" style="fill:#BA68C8"></path><path d="M195.7,164c2.47.45,3.15,2.36,1.53,4.28a8.7,8.7,0,0,1-7.41,2.65c-2.47-.45-3.15-2.36-1.53-4.28A8.7,8.7,0,0,1,195.7,164Z" style="fill:#fff;opacity:0.2"></path><path d="M195.39,165.06c2.06.38,2.63,2,1.28,3.57a7.26,7.26,0,0,1-6.18,2.22c-2.06-.38-2.63-2-1.28-3.57A7.26,7.26,0,0,1,195.39,165.06Z" style="fill:#BA68C8;opacity:0.4"></path><path d="M196.51,165.43a6.64,6.64,0,0,0-.6-.58,21.05,21.05,0,0,1-3.44-3.59c-1.43-2-2.23-3.64-3.49-5.57-3.37-5.15-5.32-8.55-10.08-15.21a71.88,71.88,0,0,0-13.09-14.11A85.72,85.72,0,0,0,133.61,111a53.58,53.58,0,0,0-11.22-1.74c-.91,0-.37.91,0,1.74a1.29,1.29,0,0,0,1,.65,84.5,84.5,0,0,1,19.68,5.1c17.81,7.42,28,15.13,41.37,38.06,1.41,2.42,3.53,6.91,3.79,9.69.29,3.05-.82,5.79,2.23,6.34a7.26,7.26,0,0,0,6.18-2.22A2.07,2.07,0,0,0,196.51,165.43Z" style="fill:#455a64"></path><path d="M118.36,103.55a2.78,2.78,0,0,0-1.11.66,2.53,2.53,0,0,0-3.08-1.1,3.44,3.44,0,0,0-2.09,2.71,2.66,2.66,0,0,0-3.18,4.24c-.31-.29-1,1.5-1,1.7a4.67,4.67,0,0,0,.73,1.88,2.51,2.51,0,0,0,3.61,1,3.08,3.08,0,0,0,5.26,1,4.47,4.47,0,0,0,2.63.81,2.45,2.45,0,0,0,2.17-1.5,2.39,2.39,0,0,0,2.36-.45,2.43,2.43,0,0,0,.74-2.29.7.7,0,0,1,0-.47.61.61,0,0,1,.23-.25,2.93,2.93,0,0,0,.8-2.85c-.35-1.79-2.39-2.78-4.05-2.63A3.11,3.11,0,0,0,118.36,103.55Z" style="fill:#37474f"></path><path d="M207.06,165.14c-2.33.93-4.16,2.77-5.9,4.58s-3.53,3.68-5.84,4.67c-4,1.7-8.61.42-12.48-1.52-1.76-.89-3.56-1.93-5.53-1.92a6.91,6.91,0,0,0-5.28,2.94,7,7,0,0,0-1.4,5.69,4.88,4.88,0,0,0,4.19,3.79c2.34.14,4.31-1.69,6.57-2.3,4.34-1.18,8.76,2.22,13.22,1.67,2.77-.34,5.1-2.15,7.28-3.89l10.65-8.51a5,5,0,0,0,1.66-1.85C215.81,164.67,209.12,164.33,207.06,165.14Z" style="fill:#fff;opacity:0.2"></path><path d="M217,162.86a1.56,1.56,0,0,0,0-.31c-.12-4.55-4.56-7.13-8.79-7.15-1.11,0-2.36.09-3,1-1,1.22-.58,3.09.08,4.36s2.52,1.6,3.83,2l4.48,1.28a4.66,4.66,0,0,0,1.77.28A1.79,1.79,0,0,0,217,162.86Z" style="fill:#fff;opacity:0.2"></path><path d="M215.31,179c.22,4,1.85,8.7,4.3,11.24a2.85,2.85,0,0,0,2.63.94,3.6,3.6,0,0,0,2.1-1.94c2.43-4.39,4.43-20.13-3.62-20.4-3.54-.12-4.9,4.63-5.31,7.41A14.44,14.44,0,0,0,215.31,179Z" style="fill:#fff;opacity:0.4"></path><path d="M210.46,210.53c5.08-2.35,12.35-4.27,17-14.63a29.12,29.12,0,0,1-3,3.43c-3.15,3-7.19,3.42-11.4,3.25a19.91,19.91,0,0,0-5.4.21c-3.55.81-6.46,3.36-10,4.38-3.78,1.1-8.67-.22-12.17-1.71a37.17,37.17,0,0,1-15.39-12.59,43,43,0,0,1-4.73-9.35c0-.12-.15-.37-.28-.71-.57,11.49,6.46,21.73,15.69,26.92C198.59,219.76,205.69,212.74,210.46,210.53Z" style="opacity:0.15"></path></g><path d="M336.82,163.09c.06,12.54-8.54,25.1-25.79,34.68-34.42,19.07-90.18,19.07-124.59,0-17.14-9.51-25.74-22-25.8-34.42l-6-.15c0,.32,0,.64,0,1l0,.35a35.39,35.39,0,0,0,6.48,18.57c4.58,6.74,11.6,13.06,21,18.52,36.72,21.2,96.28,21.2,133,0,9.37-5.41,16.34-11.68,20.93-18.38a35.5,35.5,0,0,0,6.58-18.71c0-.43,0-.87,0-1.31Z" style="fill:#BA68C8"></path><path d="M336.82,163.09c.06,12.54-8.54,25.1-25.79,34.68-34.42,19.07-90.18,19.07-124.59,0-17.14-9.51-25.74-22-25.8-34.42l-6-.15c0,.32,0,.64,0,1l0,.35a35.39,35.39,0,0,0,6.48,18.57c4.58,6.74,11.6,13.06,21,18.52,36.72,21.2,96.28,21.2,133,0,9.37-5.41,16.34-11.68,20.93-18.38a35.5,35.5,0,0,0,6.58-18.71c0-.43,0-.87,0-1.31Z" style="fill:#fff;opacity:0.88"></path><path d="M210.44,306.32c-.69.75-.54,1.94-.5,2.86.13,2.58.73,5.65-.23,8.13a3.79,3.79,0,0,1-6.52,1c-1.52-2.1-1.06-5.29-1-7.72,0-1.49.07-3,.11-4.47a9.7,9.7,0,0,0-.24-3.48c-.5-1.43-2.45-2.71-3.6-1.15a8.24,8.24,0,0,0-.79,2.64,3.74,3.74,0,0,1-2.34,2.38c-2.64,1-4.63-1.09-5-3.57-.45-2.89.69-5.67.7-8.55,0-1.93-1-6.46-3.87-4.78,0,0,0,.05,0,0,2.36-1.14,3.32,2.35,3.31,4a26.51,26.51,0,0,1-.71,4.6,12.23,12.23,0,0,0,.07,6,5,5,0,0,0,3.46,3.54,4.58,4.58,0,0,0,4.56-1.75,6.38,6.38,0,0,0,.89-2.54c.14-.65.29-1.27,1-1.48,1.47-.45,1.79,1.35,1.79,2.42,0,2.92-.19,5.84-.19,8.76a10.1,10.1,0,0,0,1.22,5.59,4.49,4.49,0,0,0,4.91,2c2.24-.58,3.26-2.7,3.41-4.85a31.45,31.45,0,0,0-.12-4c0-.86-.77-6.15,1.29-5.13.4.19.45-.54.18-.71A1.29,1.29,0,0,0,210.44,306.32Zm-2.63,20.83c-.12-.11-.2.11-.19.21a4.42,4.42,0,0,1,.1.73c0,.21,0,.44-.06.65a2.4,2.4,0,0,1-.45,1.14,2.5,2.5,0,0,1-2.3,1,2.62,2.62,0,0,1-1.21-.45,1.54,1.54,0,0,1-.47-.48,1.24,1.24,0,0,1-.11-.6,3,3,0,0,1,.53-2.33,2.25,2.25,0,0,1,1.41-.6,5.71,5.71,0,0,1,1.65.1c.1,0,.14-.22,0-.26a6.91,6.91,0,0,0-1.8-.64,2,2,0,0,0-1.7.4,3.92,3.92,0,0,0-.92,3.28,2.56,2.56,0,0,0,.92,1.85,3,3,0,0,0,1.51.63,3.07,3.07,0,0,0,2.91-1.16,3.43,3.43,0,0,0,.63-1.71,2.48,2.48,0,0,0-.14-1A1.67,1.67,0,0,0,207.81,327.15Zm67.11,36.2a5.88,5.88,0,0,0-1.63,3.43c-.29,1.52-.49,3.05-.74,4.58-.45,2.73-1.29,5.86-4.37,6.59a3.57,3.57,0,0,1-2.26-.09c-.74-.38-.9-1.5-1.07-2.24a33.65,33.65,0,0,1-.34-4.48,3.06,3.06,0,0,0-1.76-2.83,1.63,1.63,0,0,0-2,.53s0,.17.06.1a1.39,1.39,0,0,1,1.5-.47,2.14,2.14,0,0,1,1.6,1.85,38.43,38.43,0,0,1,.06,4c.18,2,.59,4.73,3.08,4.89,5.66.36,6.22-6.45,6.85-10.46.25-1.6.47-3.36,1.63-4.59a2.1,2.1,0,0,1,3.7.32c.07.12.16,0,.15-.1C279.17,362.28,276.2,362.2,274.92,363.35ZM286.26,347a25.24,25.24,0,0,0-.58,7.1,39.11,39.11,0,0,1-.26,7.95,5.6,5.6,0,0,1-1.78,3.61,2.47,2.47,0,0,1-3.49-.34c0-.07-.12.09-.08.15,1,1.47,3,1.25,4.17.09,1.46-1.51,1.71-4,1.84-6,.18-2.85-.09-5.72.05-8.58.1-2.13.45-7.1,3.36-7.33,0,0,0-.06,0-.06C287.55,343.53,286.69,345.32,286.26,347Zm21.78-98a1.56,1.56,0,0,0-2-.94c-1.17.41-1.56,1.94-1.84,3a36.93,36.93,0,0,0-.81,10.8c.1,3.47.79,8.13-1.28,11.17a4.53,4.53,0,0,1-4.46,1.84c-2.1-.42-2.52-2.69-2.66-4.49-.18-2.37-.47-5.75-3.32-6.41s-3.58,2.65-3.8,4.66c-.45,3.91-.46,8.05-1.66,11.82a6.62,6.62,0,0,1-2.92,4.07c-1.67.85-3.88.5-4.63-1.37s-.47-4.31-.45-6.27a21.23,21.23,0,0,0-.29-5.46c-.58-2.2-3.26-4.51-5.4-2.58,0,.05,0,.25,0,.18,1.3-1.07,3.18-.47,4.18.74,1.46,1.78,1,4.41.92,6.52a44.26,44.26,0,0,0,0,5.15,5.66,5.66,0,0,0,1.1,3.23c1.58,1.88,4.4,1.37,6-.19,2.29-2.24,2.73-6,3.07-9,.2-1.7.37-3.4.54-5.11.16-1.52.15-3.52,1.23-4.74,1.59-1.79,3.79,0,4.29,1.76.45,1.61.23,3.33.63,4.95.54,2.16,2.22,4,4.64,3.51s3.86-3.08,4.33-5.33c.77-3.6.28-7.45.33-11.1a35.66,35.66,0,0,1,.52-6.53,11.2,11.2,0,0,1,.88-3c.44-.83,1.9-1.83,2.53-.58C307.91,249.49,308.09,249.1,308,248.94Zm-6.6,31.51c-.1,0-.12.19-.07.25a3.88,3.88,0,0,1,1.15,2.67,3.13,3.13,0,0,1-.59,1.48,5.27,5.27,0,0,1-1.08,1.27,2.56,2.56,0,0,1-1.64.23,7.2,7.2,0,0,1-1.46-.18,2,2,0,0,1-1.19-.89,2.41,2.41,0,0,1,0-1.79,4.3,4.3,0,0,1,.86-1.8,3.9,3.9,0,0,1,1.67-1.05c.13-.05.16-.43,0-.42a3.29,3.29,0,0,0-2.88,2.59,3.16,3.16,0,0,0,.86,3.49,4.21,4.21,0,0,0,1.67.71,5.75,5.75,0,0,0,1.89.11,3.37,3.37,0,0,0,1.66-1.33,3.84,3.84,0,0,0,.87-1.87C303.28,282.63,302.82,280.87,301.44,280.45Z" style="fill:#fff;opacity:0.7000000000000001"></path></g></g><g id="freepik--Cherries--inject-52"><g id="freepik--cherries--inject-52"><g id="freepik--Leaf--inject-52"><path d="M355.33,332.77c5.62.64,18.17-8.57,31.33-7.3,15.87,1.53,26.74,7.32,32.16,18.68s5.86,16,7.7,21.34c1.51,4.38,2.91,6.56,1.85,7s-3.94.36-9,.85-20.09,6-37.24-4.88c-18.37-11.64-20.37-31-27.17-33.54Z" style="fill:#455a64"></path><path d="M354.93,334.91l.4-2.14c5.62.64,18.17-8.57,31.33-7.3,1.26.12,2.49.27,3.68.45a46.39,46.39,0,0,0-20.69,7.17c13.79,5.93,28,12.14,38.32,23a52.72,52.72,0,0,0-26-9.22,8.62,8.62,0,0,0-4.86.64c-2.2,1.21-3.08,4.05-2.67,6.52a15.65,15.65,0,0,0,3.34,6.64,41.07,41.07,0,0,0,11.72,11,33.6,33.6,0,0,0,3.86,1.89,43.36,43.36,0,0,1-11.31-5.13C363.73,356.81,361.73,337.46,354.93,334.91Z" style="opacity:0.15"></path><path d="M416.65,345.44c.66,1.56,1.17,3.17,1.68,4.79,1.12,3.58,2.46,7.08,3.74,10.61a5.87,5.87,0,0,1,.53,2.87,3.46,3.46,0,0,1-2.41-1.08,34.82,34.82,0,0,1-6.78-7.75c-1.73-2.71-3.43-5.79-5.65-8.15a22.48,22.48,0,0,0-3.82-3.11c-6.66-4.56-14.33-7.1-21-11.35-3.63-2.3.49-4.34,3-4.33,9.2,0,20.2,3.59,26.43,10.64A25.37,25.37,0,0,1,416.65,345.44Z" style="fill:#fff;opacity:0.15"></path><path d="M369.32,335.77a20.17,20.17,0,0,0,2.45-.27,30.2,30.2,0,0,0,4.84-1.34c3.15-1.14,6.19-2.59,9.4-3.55,0,0,.06.08,0,.1-3.23,1.33-6.32,3-9.6,4.21a26.36,26.36,0,0,1-4.95,1.39,1.6,1.6,0,0,1-.23,0c1.42.45,2.83.92,4.23,1.42a18.49,18.49,0,0,0,3.15-.32,48.82,48.82,0,0,0,6.16-1.69c3.78-1.23,7.91-2.54,11.91-1.65.05,0,.06.13,0,.13-4.39-.4-8.46,1-12.55,2.4a40.56,40.56,0,0,1-6,1.63c-.3.06-.61.1-.92.14,1.55.59,3.1,1.23,4.63,1.89a50,50,0,0,0,5,0c2.28-.14,4.55-.37,6.83-.55,4.47-.34,8.94-.5,13.27.83.06,0,.05.18,0,.17-4.52-1-9.22-.73-13.8-.29-2.3.23-4.6.47-6.91.59-.83,0-1.67.09-2.51.1,2.39,1.1,4.76,2.29,7.08,3.58,1,.37,2,.71,3.05,1a22.38,22.38,0,0,0,6.47.68A49,49,0,0,1,413,347.5s0,0,0,0c-2.16-.21-4.34-.4-6.52-.49s-4.56,0-6.85,0a21.12,21.12,0,0,1-5.66-.59c1.2.71,2.39,1.44,3.57,2.2a37.71,37.71,0,0,0,3.86,1.52,30,30,0,0,0,4.86,1.1c1.67.23,3.35.24,5,.38a25,25,0,0,1,5.19,1.25s0,.13,0,.12a30,30,0,0,0-5.57-.87c-1.68-.09-3.35-.09-5-.32a30.44,30.44,0,0,1-5.31-1.17q1.9,1.32,3.79,2.71a36.34,36.34,0,0,0,7.18,3c2.65.61,5.36.63,7.81,1.93,0,0,0,.1,0,.09-2.68-1.13-5.71-.87-8.51-1.55a21.56,21.56,0,0,1-3.55-1.21c.39.31.79.61,1.18.93,6.39,4.93,12.39,10.33,19,15-6.7-4.5-12.86-9.75-19.36-14.5l-1.9-1.41a27.38,27.38,0,0,1,2.63,3.26,25.35,25.35,0,0,1,2.35,4.31c.73,1.68,1.22,3.46,2.4,4.89,0,0,0,.14,0,.09a15.19,15.19,0,0,1-2.44-4.38,29.07,29.07,0,0,0-2.68-4.57,28.57,28.57,0,0,0-3.37-3.92,23.21,23.21,0,0,0-2-1.73,10.53,10.53,0,0,1-1.56-1.21q-2.66-1.76-5.38-3.38a23.3,23.3,0,0,1,3.73,6.72c1.52,4,2.65,8.13,5.15,11.64,0,0,0,.13,0,.08-5-6-5.15-15.24-11.68-20.06q-3.91-2.18-8-4c.45.72.84,1.48,1.2,2.2a38.81,38.81,0,0,1,2,5.11c.61,1.83,1.19,3.67,1.91,5.47s1.68,3.73,2.59,5.56a37.75,37.75,0,0,1,2.76,6.68c0,.07,0,.12-.07,0-1.37-4-3.8-7.52-5.55-11.35-1.49-3.26-2.42-6.74-3.87-10a23.78,23.78,0,0,0-1.45-2.79,18.51,18.51,0,0,0-1.22-1.65q-3-1.32-6.1-2.44c1.43,1.95,2.05,4.47,2.67,6.77A79,79,0,0,0,383.82,358a36.12,36.12,0,0,0,3.13,5.73s0,.13,0,.08A48.36,48.36,0,0,1,380.84,351c-.72-2.17-1.32-4.38-2-6.54a11.56,11.56,0,0,0-2.78-4.78q-3.22-1.11-6.51-2a17.16,17.16,0,0,1,2.85,5.95c1.08,3.63,1.84,7.35,2.76,11,0,0,0,.06,0,0-.53-1.8-1.15-3.58-1.67-5.38s-.93-3.32-1.45-5a16.71,16.71,0,0,0-3.77-7,90.08,90.08,0,0,0-15-2.52c-4-.37-8-.48-12-.47v-2.58A102.32,102.32,0,0,1,369.32,335.77Z" style="fill:#37474f"></path></g><g id="freepik--leaf--inject-52"><path d="M319.25,405.36c-5.56-1-14.88-13.51-27.83-16.13-15.62-3.17-27.71-.81-36.21,8.46s-10.27,13.58-13.6,18.17c-2.72,3.74-4.7,5.42-3.81,6.14s3.65,1.5,8.38,3.46,17.47,11.58,37,6.2c21-5.76,28.54-23.68,35.78-24.13Z" style="fill:#455a64"></path><path d="M319,407.53l.25-2.17c-5.56-1-14.88-13.51-27.83-16.13-1.24-.25-2.46-.47-3.65-.65a46.43,46.43,0,0,1,17.69,12.91c-14.92,1.64-30.31,3.43-43.37,10.82a52.66,52.66,0,0,1,27.51-1.24,8.64,8.64,0,0,1,4.46,2c1.75,1.8,1.76,4.77.65,7a15.52,15.52,0,0,1-5.14,5.37,40.91,40.91,0,0,1-14.42,7.09,30.67,30.67,0,0,1-4.24.68,43,43,0,0,0,12.31-1.6C304.19,425.9,311.76,408,319,407.53Z" style="opacity:0.15"></path><path d="M256.9,399.56c-1.09,1.3-2,2.7-3,4.09-2.11,3.1-4.43,6.06-6.68,9.06a6,6,0,0,0-1.35,2.59,3.45,3.45,0,0,0,2.63-.33,34.48,34.48,0,0,0,8.74-5.43c2.45-2.09,5-4.54,7.79-6.15a22.35,22.35,0,0,1,4.56-1.85c7.71-2.41,15.78-2.61,23.42-4.71,4.14-1.14.8-4.3-1.57-5-8.8-2.68-20.37-2.47-28.38,2.45A25.78,25.78,0,0,0,256.9,399.56Z" style="fill:#fff;opacity:0.15"></path><path d="M305,404.14a18.89,18.89,0,0,1-2.27-1,28.89,28.89,0,0,1-4.24-2.69c-2.68-2-5.16-4.29-7.95-6.14,0,0-.08.06-.05.08,2.7,2.22,5.17,4.71,7.95,6.84a26.52,26.52,0,0,0,4.33,2.77l.21.1c-1.49,0-3,.05-4.46.12a17.76,17.76,0,0,1-2.91-1.23,44.67,44.67,0,0,1-5.4-3.42c-3.26-2.28-6.83-4.74-10.92-5.05,0,0-.08.11,0,.12,4.3.9,7.78,3.45,11.29,6a40.7,40.7,0,0,0,5.28,3.32l.84.41q-2.49.17-5,.45c-1.62-.43-3.23-.89-4.83-1.48-2.14-.79-4.25-1.68-6.37-2.52-4.17-1.63-8.4-3.09-12.93-3.08-.07,0-.11.16,0,.16,4.62.36,9,2,13.28,3.76,2.14.89,4.27,1.8,6.44,2.59.78.28,1.58.57,2.38.83-2.62.35-5.22.8-7.83,1.35-1.06.06-2.13.09-3.19.06a22.63,22.63,0,0,1-6.4-1.25,50.15,50.15,0,0,0-12.39-2.63s0,0,0,0c2.12.43,4.26.89,6.37,1.44s4.37,1.33,6.54,2.06a21.71,21.71,0,0,0,5.58,1.08c-1.35.33-2.7.68-4.05,1.06a38.08,38.08,0,0,1-4.14.33,30.71,30.71,0,0,1-5-.37c-1.66-.27-3.28-.75-4.92-1.11a25,25,0,0,0-5.32-.32c-.05,0-.09.11,0,.12a30.15,30.15,0,0,1,5.58.8c1.63.4,3.22.88,4.89,1.16a32.15,32.15,0,0,0,5.42.43c-1.48.46-2.95,1-4.42,1.48a36.54,36.54,0,0,1-7.74.75c-2.71-.2-5.3-1-8-.44,0,0-.06.09,0,.08,2.89-.29,5.72.84,8.59,1a22.68,22.68,0,0,0,3.76-.12l-1.4.54c-7.56,2.85-14.87,6.26-22.53,8.81,7.71-2.34,15.14-5.56,22.75-8.2.74-.27,1.48-.54,2.22-.79a26.92,26.92,0,0,0-3.46,2.34,26,26,0,0,0-3.52,3.44,18.45,18.45,0,0,1-3.72,4s0,.13,0,.1a15.29,15.29,0,0,0,3.61-3.48,28.76,28.76,0,0,1,3.9-3.58,27.94,27.94,0,0,1,4.36-2.77c.78-.4,1.58-.76,2.39-1.08a10.25,10.25,0,0,0,1.86-.7c2-.6,4.07-1.16,6.12-1.66a23.33,23.33,0,0,0-5.52,5.34c-2.62,3.36-4.91,7-8.34,9.63,0,0,0,.12,0,.08,6.55-4.22,9.37-13.07,17-15.77,2.92-.63,5.87-1.14,8.82-1.53-.64.56-1.24,1.17-1.79,1.75a40.38,40.38,0,0,0-3.44,4.29c-1.12,1.58-2.21,3.17-3.42,4.68s-2.7,3.07-4.11,4.56a38.45,38.45,0,0,0-4.59,5.59c0,.05,0,.12.06.05,2.48-3.43,5.83-6.08,8.62-9.23,2.38-2.68,4.29-5.74,6.63-8.45a24.5,24.5,0,0,1,2.2-2.24,16,16,0,0,1,1.65-1.22q3.27-.39,6.55-.55c-1.94,1.45-3.27,3.67-4.53,5.69a79.18,79.18,0,0,1-6.71,9.52,35.38,35.38,0,0,1-4.67,4.57s0,.12,0,.08a48.36,48.36,0,0,0,9.56-10.52c1.32-1.86,2.54-3.8,3.87-5.65a11.56,11.56,0,0,1,4.05-3.76c2.28-.08,4.55-.09,6.82,0a17.23,17.23,0,0,0-4.47,4.84c-2.09,3.16-3.9,6.5-5.86,9.74,0,0,0,.07,0,0,1-1.57,2.15-3.08,3.17-4.66S299,413,300,411.54a16.72,16.72,0,0,1,5.64-5.58,89.87,89.87,0,0,1,15.1,2c3.91.81,7.76,1.86,11.57,3.05l.76-2.48A103.08,103.08,0,0,0,305,404.14Z" style="fill:#37474f"></path></g><g id="freepik--leaf--inject-52"><path d="M319.24,407.4c-.64-5.63,8.58-18.18,7.3-31.33-1.53-15.87-7.32-26.75-18.67-32.16s-16-5.86-21.35-7.7c-4.38-1.51-6.56-2.91-7-1.85s-.36,3.93-.85,9-6,20.09,4.88,37.23c11.64,18.38,31,20.38,33.54,27.17Z" style="fill:#455a64"></path><path d="M317.1,407.79l2.14-.39c-.64-5.63,8.58-18.18,7.3-31.33q-.18-1.89-.45-3.69a46.35,46.35,0,0,1-7.17,20.69c-5.93-13.78-12.14-28-23-38.31a52.79,52.79,0,0,1,9.23,25.95,8.71,8.71,0,0,1-.65,4.86c-1.21,2.2-4.05,3.08-6.52,2.67a15.65,15.65,0,0,1-6.64-3.34,40.94,40.94,0,0,1-11-11.73,29.83,29.83,0,0,1-1.89-3.85,43.44,43.44,0,0,0,5.12,11.3C295.2,399,314.55,401,317.1,407.79Z" style="opacity:0.15"></path><path d="M306.57,346.08a49.35,49.35,0,0,0-4.79-1.68c-3.58-1.12-7.08-2.47-10.61-3.74a5.87,5.87,0,0,0-2.87-.53,3.43,3.43,0,0,0,1.09,2.41,34.55,34.55,0,0,0,7.74,6.78c2.71,1.73,5.79,3.43,8.15,5.64a23,23,0,0,1,3.11,3.83c4.56,6.66,7.1,14.32,11.35,21,2.3,3.63,4.34-.49,4.33-3,0-9.19-3.59-20.2-10.64-26.42A25.37,25.37,0,0,0,306.57,346.08Z" style="fill:#fff;opacity:0.15"></path><path d="M316.24,393.41a20.17,20.17,0,0,1,.27-2.45,29.91,29.91,0,0,1,1.34-4.84c1.14-3.15,2.59-6.19,3.55-9.41,0,0-.08,0-.09,0-1.34,3.24-3,6.33-4.22,9.61a26.47,26.47,0,0,0-1.39,4.94l0,.24c-.45-1.42-.92-2.83-1.42-4.23a18.49,18.49,0,0,1,.32-3.15,48.82,48.82,0,0,1,1.69-6.16c1.23-3.79,2.54-7.91,1.65-11.92,0,0-.13,0-.12,0,.39,4.39-1,8.46-2.4,12.55a40.27,40.27,0,0,0-1.64,6c-.05.3-.1.61-.14.92q-.89-2.34-1.89-4.63a50,50,0,0,1,0-5.05c.14-2.28.37-4.55.55-6.83.34-4.47.5-8.94-.83-13.27,0-.06-.18-.05-.16,0,1,4.52.72,9.22.28,13.79-.22,2.31-.47,4.61-.59,6.92-.05.83-.09,1.67-.1,2.51-1.1-2.39-2.29-4.76-3.58-7.09-.37-1-.71-2-1-3a22.38,22.38,0,0,1-.68-6.47,49.6,49.6,0,0,0-1.1-12.63h0c.21,2.16.4,4.34.49,6.52s0,4.56-.05,6.85a21.12,21.12,0,0,0,.59,5.66c-.71-1.2-1.44-2.39-2.2-3.57a37.71,37.71,0,0,1-1.52-3.86,30,30,0,0,1-1.09-4.86c-.24-1.67-.25-3.36-.39-5a23.86,23.86,0,0,0-1.25-5.18s-.13,0-.11,0a30.88,30.88,0,0,1,.86,5.57c.09,1.68.09,3.34.32,5a30.44,30.44,0,0,0,1.17,5.31c-.88-1.27-1.78-2.54-2.71-3.79a37,37,0,0,1-3-7.18c-.61-2.65-.62-5.36-1.93-7.81,0,0-.1,0-.08,0,1.12,2.68.86,5.71,1.54,8.5a21.71,21.71,0,0,0,1.22,3.56c-.31-.39-.62-.79-.94-1.18-4.92-6.39-10.33-12.39-15-19,4.49,6.7,9.74,12.85,14.49,19.36l1.41,1.9a27.38,27.38,0,0,0-3.26-2.63,25.4,25.4,0,0,0-4.31-2.36c-1.67-.72-3.46-1.21-4.89-2.39,0,0-.14,0-.09,0a15.19,15.19,0,0,0,4.38,2.44,29.34,29.34,0,0,1,4.57,2.67,28.67,28.67,0,0,1,3.92,3.37c.61.63,1.19,1.29,1.73,2a10.11,10.11,0,0,0,1.21,1.57c1.18,1.77,2.3,3.56,3.38,5.38a23.3,23.3,0,0,0-6.72-3.73c-4-1.52-8.13-2.65-11.64-5.16,0,0-.13,0-.08,0,6,5,15.24,5.15,20.06,11.67q2.18,3.93,4,8a23.86,23.86,0,0,0-2.2-1.2,40.3,40.3,0,0,0-5.11-2c-1.83-.6-3.67-1.18-5.47-1.9s-3.73-1.68-5.56-2.59a37.75,37.75,0,0,0-6.68-2.76c-.06,0-.12,0,0,.07,4,1.37,7.52,3.8,11.35,5.55,3.26,1.49,6.74,2.42,10,3.87a23.78,23.78,0,0,1,2.79,1.45,16.74,16.74,0,0,1,1.65,1.22q1.32,3,2.44,6.1c-1.95-1.43-4.47-2-6.77-2.67A77.78,77.78,0,0,1,294,378.9a35.28,35.28,0,0,1-5.73-3.12s-.13,0-.08,0A48.38,48.38,0,0,0,301,381.89c2.17.72,4.38,1.31,6.54,2.05a11.54,11.54,0,0,1,4.78,2.77c.74,2.15,1.42,4.33,2,6.52a17.4,17.4,0,0,0-5.94-2.86c-3.64-1.08-7.36-1.83-11-2.75,0,0-.06,0,0,0,1.8.53,3.58,1.15,5.38,1.67s3.32.93,5,1.45a16.71,16.71,0,0,1,7,3.77,91.14,91.14,0,0,1,2.53,15c.36,4,.48,8,.46,11.95h2.58A102.32,102.32,0,0,0,316.24,393.41Z" style="fill:#37474f"></path></g><g id="freepik--cherry--inject-52"><path d="M400,399.11c-4.69-8.85-10-10.42-17.07-10.71-2.28-.09-5.26.35-7.29-.33s-3.92-2.64-6.69-3.68c-5-1.91-12-2.35-19.16,2.65-11.15,7.73-15.26,23.71-7.85,38.73,6,12.15,15.53,12.42,20.6,13.34s17.48,6.79,28.14-3C400.41,427.27,407.06,412.38,400,399.11Z" style="fill:#BA68C8"></path><path d="M400,399.11c-4.69-8.85-10-10.42-17.07-10.71-2.28-.09-5.26.35-7.29-.33s-3.92-2.64-6.69-3.68c-5-1.91-12-2.35-19.16,2.65-11.15,7.73-15.26,23.71-7.85,38.73,6,12.15,15.53,12.42,20.6,13.34s17.48,6.79,28.14-3C400.41,427.27,407.06,412.38,400,399.11Z" style="fill:#fff;opacity:0.1"></path><path d="M358.05,390.64c-.27.25-.53.52-.79.79a27.43,27.43,0,0,1-3.82,3.8,9.53,9.53,0,0,1-7.19,1.58,1.54,1.54,0,0,1-1-.49c-.83-1.15.53-3,1.25-3.86a23.58,23.58,0,0,1,8-6A19.87,19.87,0,0,1,364.77,385a15.6,15.6,0,0,1,7,2.45,15.92,15.92,0,0,0,6.11,2.54,1.67,1.67,0,0,1,.84.3,1,1,0,0,1,.21,1.15,2.55,2.55,0,0,1-.75,1,2.51,2.51,0,0,1-1.62.78c-1.43,0-3-2.28-4.2-3a14.73,14.73,0,0,0-5-1.85,12.32,12.32,0,0,0-5.6-.06A9.82,9.82,0,0,0,358.05,390.64Z" style="fill:#fff;opacity:0.1"></path><path d="M397.62,423.19a26.85,26.85,0,0,1-7,7.48,18.8,18.8,0,0,1-19.56.6c-2.16-1.26-4.09-3-6.48-3.74-3.54-1.12-7.37.09-11.07-.15a16.23,16.23,0,0,1-11.33-6.17,20.5,20.5,0,0,1-3.71-7.35A35.75,35.75,0,0,0,342,425.77c6,12.15,15.53,12.42,20.6,13.34s17.48,6.79,28.14-3c6.69-6.12,11.93-15.09,12.23-24.43A40.19,40.19,0,0,1,397.62,423.19Z" style="opacity:0.15"></path><path d="M350.25,435.39a17.92,17.92,0,0,0,2-6.09c1.26-7.91-.47-16.08-3.65-23.43a27.58,27.58,0,0,0-6.76-9.91c-4.57,8.3-5,19.29.15,29.81A22.71,22.71,0,0,0,350.25,435.39Z" style="opacity:0.15"></path><path d="M378.2,394c0-.15-.31-.34-.4-.12a10.28,10.28,0,0,1-2.33,3.86,8.36,8.36,0,0,1-4.3,2.16c-2.47.3-4.58-.73-6.88-1.45a.31.31,0,0,0-.21,0c-.19.06-.14.34-.05.52a5.76,5.76,0,0,0,3.83,2.68,10,10,0,0,0,4.92-.05A8,8,0,0,0,377.1,399,5.57,5.57,0,0,0,378.2,394Z" style="fill:#fff;opacity:0.1"></path><path d="M373.86,392.94c2.35.74,2.77,2.69.95,4.35a8.51,8.51,0,0,1-7.54,1.65c-2.35-.74-2.77-2.69-.95-4.35A8.51,8.51,0,0,1,373.86,392.94Z" style="fill:#BA68C8"></path><path d="M373.86,392.94c2.35.74,2.77,2.69.95,4.35a8.51,8.51,0,0,1-7.54,1.65c-2.35-.74-2.77-2.69-.95-4.35A8.51,8.51,0,0,1,373.86,392.94Z" style="fill:#fff;opacity:0.2"></path><path d="M373.43,393.94c1.95.63,2.31,2.25.79,3.64a7.14,7.14,0,0,1-6.29,1.38c-2-.63-2.32-2.25-.8-3.64A7.15,7.15,0,0,1,373.43,393.94Z" style="fill:#BA68C8;opacity:0.4"></path><path d="M375,395.19a48.41,48.41,0,0,0-3-15.87c-4.4-10.93-28.22-45-28.22-45L341.21,336S366,368.2,369.88,381c2.48,8.07-.2,11-3.09,14.71h0c-1.1,1.29-.66,2.71,1.14,3.28a7.14,7.14,0,0,0,6.29-1.38A2.12,2.12,0,0,0,375,395.19Z" style="fill:#455a64"></path><path d="M374.22,397.58a2.12,2.12,0,0,0,.81-2.39A49,49,0,0,0,372.28,380h0c1.83,6.65,2.05,13.27-.73,15.9-2.3,2.16-4.63,1.55-5.06.16-.69,1.17-.16,2.35,1.44,2.86A7.14,7.14,0,0,0,374.22,397.58Z" style="fill:#263238"></path><path d="M394.11,413.22c3.14,1.71,5.74-.66,5.93-3.89a11,11,0,0,0-1.48-6.64,6.31,6.31,0,0,0-5.84-3c-4.25.55-4.62,5.38-3.09,8.42A11.43,11.43,0,0,0,394.11,413.22Z" style="fill:#BA68C8"></path><path d="M394.11,413.22c3.14,1.71,5.74-.66,5.93-3.89a11,11,0,0,0-1.48-6.64,6.31,6.31,0,0,0-5.84-3c-4.25.55-4.62,5.38-3.09,8.42A11.43,11.43,0,0,0,394.11,413.22Z" style="fill:#fff;opacity:0.4"></path><path d="M394.09,418.07a3.75,3.75,0,0,0,.16,2.1,2,2,0,0,0,1.63,1.22,1.9,1.9,0,0,0,1.4-.62,3.3,3.3,0,0,0,.75-1.39,3.85,3.85,0,0,0-.07-2.51C396.78,414.12,394.45,415.94,394.09,418.07Z" style="fill:#fff;opacity:0.4"></path><path d="M377.24,400.36a12.42,12.42,0,0,1-1.56.94,15.67,15.67,0,0,1-6.41,1.56,23.22,23.22,0,0,0-2.64,0,.55.55,0,0,0-.45.22c-.11.19,0,.43.18.58,1.4,1.45,4.23,1.41,6.08,1.39,6.07-.08,11.28-2.84,15.88-6.6a5.45,5.45,0,0,0,2.06-2.63,3.86,3.86,0,0,0-2.14-4.12c-1.23-.66-3.62-1.7-5-1.06-1.69.76-1.64,3.37-2.25,5A10.25,10.25,0,0,1,377.24,400.36Z" style="fill:#fff;opacity:0.2"></path><path d="M359.72,400.68l-.14.11a.24.24,0,0,0-.07.16c-.09.55.46,1,.95,1.24a12.32,12.32,0,0,0,2.4.94c.84.23,2.18.15,1.13-.93C363.4,401.6,360.68,400.15,359.72,400.68Z" style="fill:#fff;opacity:0.2"></path><path d="M354.94,403.12c-2.19-2-3.7-4.3-7.2-3.17a7.51,7.51,0,0,0-4.83,6.45,11.38,11.38,0,0,0,2.6,7.91,12.87,12.87,0,0,0,5.3,4.11,20.93,20.93,0,0,0,5.55,1.15c4.49.49,9.1.83,13.44-.39s8.42-4.3,9.64-8.64a2.89,2.89,0,0,0,.07-1.72c-.45-1.24-2.09-1.46-3.42-1.47C369.27,407.31,360.46,408.11,354.94,403.12Z" style="fill:#fff;opacity:0.1"></path></g><g id="freepik--cherry--inject-52"><g id="freepik--cherry--inject-52"><path d="M314.29,453.41a25.65,25.65,0,0,0,6.47-.34A35.35,35.35,0,0,0,330.81,449c3.44-1.86,6.88-3.87,9.52-6.76,5.86-6.41,8.31-17.09,6.89-25.48-1.53-9-6.46-17.52-14.35-22.39-6.25-3.86-14.55-5.2-21.34-2-3.33,1.55-6.32,3.74-9.61,5.37-2.05,1-4.22,1.83-6.22,3-18.14,10.19-12.59,36.88,2.27,47.12A33.85,33.85,0,0,0,314.29,453.41Z" style="fill:#BA68C8"></path><path d="M314.29,453.41a25.65,25.65,0,0,0,6.47-.34A35.35,35.35,0,0,0,330.81,449c3.44-1.86,6.88-3.87,9.52-6.76,5.86-6.41,8.31-17.09,6.89-25.48-1.53-9-6.46-17.52-14.35-22.39-6.25-3.86-14.55-5.2-21.34-2-3.33,1.55-6.32,3.74-9.61,5.37-2.05,1-4.22,1.83-6.22,3-18.14,10.19-12.59,36.88,2.27,47.12A33.85,33.85,0,0,0,314.29,453.41Z" style="fill:#fff;opacity:0.1"></path><path d="M340.33,442.23a25.41,25.41,0,0,0,4.27-6.59,30.61,30.61,0,0,1-4.12,4.75,17.32,17.32,0,0,1-10.14,4.82c-2.84.23-5.76-.46-8.51.3-2,.53-3.65,1.75-5.53,2.5-6.12,2.44-14.58.34-19.71-3.78a35.69,35.69,0,0,1-11.27-15.31c1.94,7.55,6.49,14.62,12.65,18.86a33.85,33.85,0,0,0,16.32,5.63,25.65,25.65,0,0,0,6.47-.34A35.35,35.35,0,0,0,330.81,449C334.25,447.13,337.69,445.12,340.33,442.23Z" style="opacity:0.15"></path><path d="M307.15,406.66a.24.24,0,0,1,.09-.06c.38-.08.37.77.38,1a9.75,9.75,0,0,0,1.4,5.15,8.76,8.76,0,0,0,3.7,2.87,12.41,12.41,0,0,0,4.62,1.17,11.87,11.87,0,0,0,4.79-.79.45.45,0,0,1,.32,0c.42.14-.16,1-.3,1.17-2.74,3.31-7.23,2.62-10.7,1a9.47,9.47,0,0,1-4.68-4.18,8,8,0,0,1-.71-4.17,6.65,6.65,0,0,1,.6-2.23A4,4,0,0,1,307.15,406.66Z" style="fill:#fff;opacity:0.2"></path><path d="M313.32,406.15a3,3,0,0,0-2.67,4.57,7.17,7.17,0,0,0,6.58,3.81,3,3,0,0,0,2.66-4.57A7.16,7.16,0,0,0,313.32,406.15Z" style="fill:#BA68C8"></path><path d="M313.32,406.15a3,3,0,0,0-2.67,4.57,7.17,7.17,0,0,0,6.58,3.81,3,3,0,0,0,2.66-4.57A7.16,7.16,0,0,0,313.32,406.15Z" style="fill:#fff;opacity:0.2"></path><path d="M321.22,409.44a11.1,11.1,0,0,1,.66,2.9,2.38,2.38,0,0,0,.46,1.49,1.64,1.64,0,0,0,2,0,4.24,4.24,0,0,0,1.6-4.16,11.16,11.16,0,0,0-1.85-4.28c-.79-1.25-2.71-3.58-3.93-1.61C319.16,405.44,320.65,407.91,321.22,409.44Z" style="fill:#fff;opacity:0.2"></path><path d="M289.88,408.56a16.86,16.86,0,0,0-.63,17.63,9.58,9.58,0,0,0,5.56,4.17,10.83,10.83,0,0,0,7.78-.5,4.92,4.92,0,0,0,2.56-5c-.37-3.5-2.18-6.6-3.31-9.88s-.15-5.9-.82-9.11c-.41-2-2.65-2.67-4.4-2.34-2.61.49-5,2.66-6.51,4.74C290,408.35,290,408.45,289.88,408.56Z" style="fill:#fff;opacity:0.2"></path><path d="M289,418.1c.3,2.14,1.39,3.77,4.07,2.76a6.21,6.21,0,0,0,3-2.84,21.53,21.53,0,0,0,2.42-7.79c.17-1.19.29-2.75-.67-3.66-1.12-1.06-3-.24-4.09.47a10.69,10.69,0,0,0-4.18,5.53A13.58,13.58,0,0,0,289,418.1Z" style="fill:#fff;opacity:0.2"></path><path d="M317.94,393.72c-.86.42-1.76,1.53-1.07,2.19a1.57,1.57,0,0,0,1,.34,35.38,35.38,0,0,1,15.93,6.43,37.33,37.33,0,0,1,10.71,12.13c.51-7-4.91-12.91-9.94-17C330,394.11,323.69,390.93,317.94,393.72Z" style="fill:#fff;opacity:0.2"></path><path d="M307.73,419.36a1.34,1.34,0,0,0-.52.22c-.56.42-.34,1.93-.19,2.53a8.8,8.8,0,0,0,2.28,4c2.14,2.19,7.57,2.29,10.48,2,3.41-.36,6.83-2,8.55-5,1.58-2.73,1.53-6.12,2.9-9a5.62,5.62,0,0,1,1.85-2.29,8,8,0,0,1,4-1,7.12,7.12,0,0,0-3.77-3.61c-2.18-.48-3,2.39-3.42,3.91-1.06,3.84-3.2,7.52-6.57,9.64-4.09,2.56-8.31,1.69-12.37-.43a9.86,9.86,0,0,0-2.29-1A2.39,2.39,0,0,0,307.73,419.36Z" style="fill:#fff;opacity:0.1"></path></g><path d="M339,337.25c2.68,15.59-4,37.79-13,48.94s-14.12,17.09-14.84,23.42h0a2.9,2.9,0,0,0,.29,1.55,5.44,5.44,0,0,0,5,2.9,2.26,2.26,0,0,0,2.33-2.3v0c-.17-3,.59-11.27,11.39-27.11,16-23.7,10-46.51,11.76-48.42S339,337.25,339,337.25Z" style="fill:#455a64"></path><path d="M326.85,389.76c-7.11,9.78-8.88,17.35-9.4,20.58s-4.81,1.42-6.17-1.44c0,.24-.09.47-.11.71h0a2.9,2.9,0,0,0,.29,1.55,5.44,5.44,0,0,0,5,2.9,2.26,2.26,0,0,0,2.33-2.3v0c-.15-2.68.44-9.47,8.09-22Z" style="fill:#263238"></path><path d="M336.25,327.52a1.83,1.83,0,0,0-1.79,1.21,1.81,1.81,0,0,0,.72,2c.21.13.46.25.51.49s-.16.47-.31.67a1.77,1.77,0,0,0,1.33,2.83,1.52,1.52,0,0,0,.24,1.65,1.87,1.87,0,0,0,1.59.59.85.85,0,0,1,.5,0c.18.12.21.36.27.57a1.47,1.47,0,0,0,1.94.78,2.14,2.14,0,0,0,1.18-1.91c.38.46,1.2.14,1.43-.41a2.77,2.77,0,0,0-.08-1.75,2.43,2.43,0,0,1,0-1.74c.15-.3.42-.53.59-.83a1.55,1.55,0,0,0-1.27-2.2,3.31,3.31,0,0,0,.19-1.78,1.13,1.13,0,0,0-1.35-.87,2.1,2.1,0,0,0-.84-1.85c-.71-.6-1-.2-1.78-.37-.42-.09-.67-.51-1.07-.64a1.87,1.87,0,0,0-2,.71C336,325.05,335.58,327.48,336.25,327.52Z" style="fill:#37474f"></path></g></g></g><g id="freepik--Sparkles--inject-52"><path id="freepik--Shine--inject-52" d="M407.86,208.07a.39.39,0,0,0-.34-.39l-8.4-.93a1.91,1.91,0,0,1-1.68-1.71l-1-10.72a.38.38,0,0,0-.38-.35.39.39,0,0,0-.39.35l-1,10.72a1.92,1.92,0,0,1-1.69,1.71l-8.39.93a.39.39,0,0,0,0,.77l8.39.93a1.92,1.92,0,0,1,1.69,1.72l1,10.71a.39.39,0,0,0,.39.35.38.38,0,0,0,.38-.35l1-10.71a1.91,1.91,0,0,1,1.68-1.72l8.4-.93A.39.39,0,0,0,407.86,208.07Zm-8.82.54a2.68,2.68,0,0,0-2.37,2.42l-.58,6.44-.58-6.44a2.69,2.69,0,0,0-2.37-2.42l-4.92-.54,4.92-.55a2.68,2.68,0,0,0,2.37-2.42l.58-6.43.58,6.43a2.67,2.67,0,0,0,2.37,2.42l4.92.55ZM83.76,238.21l-6.2-.69a1.26,1.26,0,0,1-1.12-1.15l-.72-7.9a.42.42,0,0,0-.83,0l-.71,7.91a1.28,1.28,0,0,1-1.13,1.14l-6.19.69a.42.42,0,0,0,0,.83l6.19.69a1.27,1.27,0,0,1,1.13,1.14l.71,7.91a.42.42,0,0,0,.83,0l.72-7.91a1.25,1.25,0,0,1,1.12-1.14l6.2-.69a.42.42,0,0,0,0-.83Zm-6.14.7a2.27,2.27,0,0,0-2,2l-.31,3.5L75,241a2.26,2.26,0,0,0-2-2l-2.6-.29,2.6-.28a2.27,2.27,0,0,0,2-2h0l.32-3.5.31,3.5a2.28,2.28,0,0,0,2,2l2.59.28Zm363.44,8-5.38-.6a1.21,1.21,0,0,1-1.08-1.1l-.62-6.88a.26.26,0,0,0-.25-.22.25.25,0,0,0-.25.22l-.62,6.88a1.21,1.21,0,0,1-1.08,1.1l-5.39.6a.25.25,0,0,0,0,.49l5.39.59a1.22,1.22,0,0,1,1.08,1.11l.62,6.87a.25.25,0,0,0,.25.23A.26.26,0,0,0,434,256l.62-6.87a1.22,1.22,0,0,1,1.08-1.11l5.38-.59a.24.24,0,0,0,.22-.25A.24.24,0,0,0,441.06,246.91Zm-5.44.59a1.72,1.72,0,0,0-1.52,1.55l-.37,4.13-.37-4.13a1.72,1.72,0,0,0-1.52-1.55l-3.16-.35,3.16-.35a1.72,1.72,0,0,0,1.52-1.55l.37-4.13.37,4.13a1.72,1.72,0,0,0,1.52,1.55l3.16.35Zm11.28-72.09-9.67-1.07a2.18,2.18,0,0,1-1.94-2L434.17,160a.45.45,0,0,0-.44-.41.46.46,0,0,0-.45.41l-1.11,12.34a2.18,2.18,0,0,1-1.94,2l-9.68,1.07a.45.45,0,0,0-.39.45.44.44,0,0,0,.39.44l9.68,1.07a2.19,2.19,0,0,1,1.94,2l1.11,12.35a.45.45,0,0,0,.45.4.44.44,0,0,0,.44-.4l1.12-12.35a2.18,2.18,0,0,1,1.94-2l9.67-1.07a.44.44,0,0,0,.4-.44A.45.45,0,0,0,446.9,175.41Zm-9.77,1.07a3.1,3.1,0,0,0-2.73,2.79l-.67,7.42-.67-7.42a3.1,3.1,0,0,0-2.73-2.79l-5.67-.62,5.67-.63a3.09,3.09,0,0,0,2.73-2.79l.67-7.42.67,7.42a3.09,3.09,0,0,0,2.73,2.79l5.66.63ZM425,60.32l-9.67-1.07a2.18,2.18,0,0,1-1.94-2l-1.12-12.34a.44.44,0,0,0-.88,0l-1.12,12.34a2.18,2.18,0,0,1-1.94,2l-9.67,1.07a.45.45,0,0,0,0,.89l9.67,1.07a2.19,2.19,0,0,1,1.94,2l1.12,12.35a.44.44,0,0,0,.88,0l1.12-12.35a2.19,2.19,0,0,1,1.94-2L425,61.21a.45.45,0,0,0,0-.89Zm-9.77,1.07a3.1,3.1,0,0,0-2.73,2.79l-.67,7.42-.67-7.42a3.1,3.1,0,0,0-2.73-2.79l-5.67-.62,5.67-.63a3.09,3.09,0,0,0,2.73-2.79l.67-7.42.67,7.42a3.09,3.09,0,0,0,2.73,2.79l5.67.63ZM191,116.41l-5.6-.62a1.15,1.15,0,0,1-1-1l-.64-7.14a.38.38,0,0,0-.38-.34.39.39,0,0,0-.38.34l-.64,7.15a1.15,1.15,0,0,1-1,1l-5.6.62a.38.38,0,0,0,0,.75l5.6.62a1.16,1.16,0,0,1,1,1L183,126a.38.38,0,0,0,.38.34.37.37,0,0,0,.38-.34l.64-7.14a1.16,1.16,0,0,1,1-1l5.6-.62a.38.38,0,0,0,0-.75Zm-5.69.62a1.91,1.91,0,0,0-1.68,1.72l-.27,3-.27-3a1.91,1.91,0,0,0-1.68-1.72l-2.19-.24,2.19-.25a1.9,1.9,0,0,0,1.68-1.72h0l.27-2.95.27,2.95a1.9,1.9,0,0,0,1.68,1.72l2.2.25Zm85.19-40.16L264,76.15l-.73-8.08a.38.38,0,0,0-.76,0l-.72,8.08-6.53.72a.38.38,0,0,0,0,.75l6.52.73.73,8.07a.38.38,0,0,0,.76,0l.72-8.07,6.53-.73a.38.38,0,0,0,0-.75Zm-7.22.79h0l-.41,4.51-.41-4.51-3.73-.41,3.87-.43V75.28l.27-3,.41,4.5,3.73.42ZM62.8,49.4l-6.53-.73-.72-8.07a.39.39,0,0,0-.38-.35.38.38,0,0,0-.38.35l-.73,8.07-6.52.73a.38.38,0,0,0,0,.75l6.52.72L54.79,59a.38.38,0,0,0,.38.34.39.39,0,0,0,.38-.34l.72-8.08,6.53-.72a.38.38,0,0,0,0-.75Zm-7.22.78h0l-.41,4.51-.41-4.51L51,49.77l3.88-.43V47.81l.27-3,.41,4.51,3.73.41ZM468,49.4l-6.53-.73-.73-8.07a.37.37,0,0,0-.37-.35.38.38,0,0,0-.38.35l-.73,8.07-6.53.73a.38.38,0,0,0,0,.75l6.53.72L460,59a.38.38,0,0,0,.38.34.37.37,0,0,0,.37-.34l.73-8.08,6.53-.72a.38.38,0,0,0,0-.75Zm-7.23.78h0l-.4,4.51L460,50.18l-3.74-.41,3.88-.43V47.81l.27-3,.4,4.51,3.74.41ZM240.37,53.52l-8-.88a1.83,1.83,0,0,1-1.6-1.64l-.91-10.19a.37.37,0,0,0-.74,0L228.21,51a1.82,1.82,0,0,1-1.6,1.64l-8,.88a.37.37,0,0,0,0,.73l8,.88a1.8,1.8,0,0,1,1.6,1.64L229.13,67a.37.37,0,0,0,.74,0l.91-10.18a1.82,1.82,0,0,1,1.6-1.64l8-.88a.37.37,0,0,0,0-.73Zm-8.07.88a2.55,2.55,0,0,0-2.25,2.3l-.55,6.12L229,56.7a2.56,2.56,0,0,0-2.26-2.3L222,53.88l4.67-.51a2.56,2.56,0,0,0,2.26-2.3L229.5,45l.55,6.12a2.56,2.56,0,0,0,2.25,2.3l4.68.51ZM79.07,143.9l-6.28-.69a1.31,1.31,0,0,1-1.14-1.16l-.72-8a.42.42,0,0,0-.42-.39.43.43,0,0,0-.43.39l-.72,8a1.3,1.3,0,0,1-1.14,1.16l-6.28.69a.44.44,0,0,0-.38.43.43.43,0,0,0,.38.42l6.28.7a1.27,1.27,0,0,1,1.14,1.16l.72,8a.43.43,0,0,0,.43.39.42.42,0,0,0,.42-.39l.72-8a1.29,1.29,0,0,1,1.14-1.16l6.28-.7a.42.42,0,0,0,.38-.42A.43.43,0,0,0,79.07,143.9Zm-6,.74a2.49,2.49,0,0,0-2.19,2.24l-.34,3.84-.35-3.84A2.49,2.49,0,0,0,68,144.64l-2.85-.31L68,144a2.47,2.47,0,0,0,2.19-2.23h0l.35-3.84.34,3.84A2.47,2.47,0,0,0,73,144l2.85.32ZM441.55,97.26l-6.28-.7a1.29,1.29,0,0,1-1.14-1.16l-.72-8A.42.42,0,0,0,433,87a.42.42,0,0,0-.42.39l-.73,8a1.27,1.27,0,0,1-1.14,1.16l-6.27.7a.42.42,0,0,0,0,.84l6.27.7a1.27,1.27,0,0,1,1.14,1.16l.73,8a.42.42,0,0,0,.42.39.42.42,0,0,0,.42-.39l.72-8a1.29,1.29,0,0,1,1.14-1.16l6.28-.7a.42.42,0,0,0,0-.84Zm-6,.74a2.45,2.45,0,0,0-2.18,2.23l-.35,3.84-.35-3.84A2.45,2.45,0,0,0,430.45,98l-2.84-.32,2.84-.31a2.47,2.47,0,0,0,2.19-2.24h0l.35-3.84.35,3.84a2.47,2.47,0,0,0,2.18,2.24l2.85.31ZM124.94,196.6l-9.67-1.07a2.18,2.18,0,0,1-1.94-2l-1.12-12.35a.44.44,0,0,0-.88,0l-1.12,12.35a2.18,2.18,0,0,1-1.94,2L98.6,196.6a.45.45,0,0,0-.4.45.44.44,0,0,0,.4.44l9.67,1.07a2.19,2.19,0,0,1,1.94,2l1.12,12.35a.44.44,0,0,0,.88,0l1.12-12.35a2.19,2.19,0,0,1,1.94-2l9.67-1.07a.44.44,0,0,0,.4-.44A.45.45,0,0,0,124.94,196.6Zm-9.77,1.07a3.1,3.1,0,0,0-2.73,2.79l-.67,7.42-.67-7.42a3.1,3.1,0,0,0-2.73-2.79l-5.67-.62,5.67-.63a3.09,3.09,0,0,0,2.73-2.78l.67-7.42.67,7.42a3.09,3.09,0,0,0,2.73,2.78l5.67.63ZM132.66,64.3,123,63.23a2.18,2.18,0,0,1-1.94-2l-1.11-12.34a.45.45,0,0,0-.89,0l-1.11,12.34a2.19,2.19,0,0,1-1.94,2l-9.68,1.07a.45.45,0,0,0,0,.89L116,66.26a2.2,2.2,0,0,1,1.94,2L119,80.59a.45.45,0,0,0,.89,0L121,68.24a2.19,2.19,0,0,1,1.94-2l9.68-1.07a.45.45,0,0,0,0-.89Zm-9.78,1.07a3.09,3.09,0,0,0-2.73,2.79l-.67,7.42-.66-7.42a3.1,3.1,0,0,0-2.74-2.79l-5.66-.62,5.66-.63a3.1,3.1,0,0,0,2.74-2.79l.66-7.42.67,7.42a3.09,3.09,0,0,0,2.73,2.79l5.67.63Z" style="fill:#BA68C8;opacity:0.2"></path></g></svg>
